<svg width="24" height="24" viewBox="0 0 24 24" fill="none" xmlns="http://www.w3.org/2000/svg">
<g clip-path="url(#clip0_635_511)">
<path d="M21.3779 15.6533C21.0361 15.4882 19.6937 15.0706 18.7571 14.9624C19.0386 14.1646 19.1844 13.3228 19.1881 12.474C19.9329 12.5759 20.6903 12.611 20.9521 12.5881C21.0871 12.5764 21.2185 12.5374 21.3389 12.4733C21.4593 12.4093 21.5662 12.3215 21.6536 12.2149C21.741 12.1083 21.8071 11.985 21.8482 11.852C21.8893 11.7191 21.9045 11.5792 21.893 11.4402C21.8815 11.3012 21.8435 11.1659 21.7812 11.042C21.7189 10.9182 21.6335 10.8082 21.5299 10.7183C21.4262 10.6284 21.3064 10.5605 21.1773 10.5183C21.0481 10.4762 20.9121 10.4606 20.7771 10.4726C20.5125 10.4957 19.7586 10.6655 19.034 10.8994C18.8719 10.0998 18.5821 9.33349 18.1762 8.63167C18.8406 8.4424 19.7144 8.03471 20.2599 7.74051C20.52 7.8074 20.7933 7.7946 21.0464 7.70367C21.2995 7.61274 21.5212 7.44766 21.6844 7.22873C21.8475 7.00979 21.9449 6.74654 21.9647 6.47136C21.9844 6.19618 21.9256 5.92106 21.7954 5.67984C21.6653 5.43863 21.4695 5.24182 21.2321 5.11364C20.9947 4.98545 20.7261 4.93147 20.4594 4.95834C20.1926 4.98521 19.9393 5.09175 19.7305 5.26486C19.5218 5.43797 19.3668 5.67011 19.2845 5.93272C18.839 6.32737 18.0486 7.1301 17.5977 7.77477C17.0116 7.02521 16.2903 6.39924 15.4736 5.93126C16.1347 5.23908 16.9362 3.99249 17.0998 3.63348C17.216 3.37859 17.229 3.08663 17.1361 2.82184C17.0431 2.55704 16.8518 2.3411 16.6042 2.22151C16.3566 2.10193 16.073 2.08849 15.8158 2.18417C15.5585 2.27984 15.3488 2.47679 15.2326 2.73168C15.0689 3.09085 14.6496 4.5233 14.5553 5.48917C13.7794 5.18201 12.9574 5.01609 12.1262 4.99882C12.2263 4.2284 12.2609 3.44228 12.2385 3.17145C12.2153 2.89092 12.0848 2.63136 11.8757 2.44988C11.6666 2.26839 11.396 2.17985 11.1235 2.20374C10.851 2.22762 10.5988 2.36196 10.4225 2.57721C10.2462 2.79247 10.1602 3.071 10.1834 3.35153C10.2058 3.62236 10.369 4.39116 10.5941 5.13308C9.77173 5.2959 8.98338 5.60577 8.26484 6.04863C8.0061 5.14504 7.41629 3.92044 7.18705 3.56225C7.1872 3.55358 7.18731 3.5449 7.18731 3.53619C7.18727 3.26462 7.11136 2.9988 6.96861 2.77043C6.82586 2.54206 6.6223 2.36078 6.38222 2.24822C6.14215 2.13566 5.87568 2.09657 5.61462 2.13562C5.35355 2.17466 5.10891 2.29019 4.90987 2.46842C4.71084 2.64665 4.56581 2.88006 4.49209 3.14081C4.41837 3.40155 4.41907 3.67862 4.4941 3.93897C4.56914 4.19932 4.71535 4.43195 4.91529 4.60911C5.11522 4.78627 5.36045 4.90049 5.62171 4.93813C5.97444 5.36984 6.75205 6.19076 7.39255 6.68101C6.70742 7.26029 6.13118 7.96387 5.69235 8.75691C5.01069 8.08783 3.85583 7.30286 3.51661 7.13904C3.39398 7.07961 3.26117 7.04565 3.12578 7.03909C2.99039 7.03254 2.85507 7.05353 2.72756 7.10086C2.60006 7.14818 2.48286 7.22092 2.38269 7.31491C2.28251 7.4089 2.20132 7.52229 2.14375 7.64861C2.08618 7.77493 2.05336 7.91169 2.04718 8.05107C2.04099 8.19045 2.06156 8.32972 2.10771 8.46092C2.15385 8.59211 2.22467 8.71265 2.3161 8.81565C2.40754 8.91865 2.5178 9.00208 2.64059 9.06117C2.97912 9.22465 4.29911 9.63584 5.23435 9.74881C4.93373 10.5475 4.77044 11.3939 4.75179 12.2502C4.00284 12.147 3.23818 12.1113 2.9749 12.1344C2.70256 12.1585 2.45066 12.2929 2.27455 12.5081C2.09845 12.7234 2.01255 13.0017 2.03574 13.2821C2.05892 13.5625 2.18929 13.8219 2.3982 14.0034C2.60711 14.1849 2.87746 14.2735 3.14984 14.2499C3.41272 14.2269 4.15862 14.0591 4.87883 13.8277C5.02786 14.6351 5.30686 15.4113 5.70429 16.1242C5.02999 16.3365 4.19074 16.7358 3.68759 17.0126C3.42548 16.9562 3.15309 16.9798 2.90384 17.0806C2.65459 17.1813 2.43933 17.3547 2.28449 17.5796C2.12964 17.8045 2.04195 18.071 2.03217 18.3465C2.02239 18.622 2.09095 18.8944 2.22943 19.1303C2.36791 19.3662 2.57029 19.5554 2.81173 19.6746C3.05317 19.7938 3.32316 19.8378 3.58857 19.8013C3.85398 19.7647 4.10325 19.6492 4.3058 19.4689C4.50834 19.2886 4.65534 19.0514 4.72875 18.7863C5.14449 18.4188 5.86652 17.6897 6.32859 17.0674C6.9168 17.8237 7.64226 18.4549 8.46457 18.9261C7.80342 19.6183 7.00195 20.8649 6.83833 21.2239C6.78032 21.3502 6.74709 21.487 6.74054 21.6265C6.734 21.766 6.75426 21.9055 6.80018 22.0369C6.84609 22.1684 6.91675 22.2892 7.00811 22.3925C7.09947 22.4957 7.20974 22.5794 7.33258 22.6388C7.45542 22.6981 7.58843 22.7319 7.72398 22.7382C7.85954 22.7445 7.99497 22.7232 8.12251 22.6756C8.25006 22.6279 8.36721 22.5548 8.46726 22.4604C8.5673 22.3661 8.64828 22.2523 8.70553 22.1257C8.86925 21.7665 9.28855 20.3341 9.38281 19.3682C10.1588 19.6753 10.9807 19.8413 11.8119 19.8585C11.7118 20.629 11.6772 21.4151 11.6996 21.6859C11.7228 21.9664 11.8533 22.226 12.0624 22.4075C12.2715 22.589 12.5421 22.6775 12.8146 22.6536C13.0871 22.6297 13.3393 22.4954 13.5156 22.2801C13.6919 22.0649 13.7779 21.7864 13.7547 21.5058C13.7323 21.235 13.5691 20.4662 13.344 19.7243C14.1664 19.5614 14.9548 19.2516 15.6733 18.8087C15.8654 19.4797 16.2401 20.3277 16.5141 20.8665C16.4456 21.1328 16.4541 21.4139 16.5385 21.6753C16.6229 21.9367 16.7796 22.1671 16.9893 22.3382C17.199 22.5093 17.4527 22.6137 17.7192 22.6386C17.9858 22.6635 18.2535 22.6078 18.4898 22.4783C18.726 22.3488 18.9203 22.1512 19.0491 21.9097C19.1778 21.6682 19.2352 21.3932 19.2144 21.1186C19.1935 20.8439 19.0953 20.5815 18.9317 20.3635C18.7681 20.1455 18.5463 19.9813 18.2934 19.8912C17.9307 19.4528 17.1725 18.6562 16.5456 18.1763C17.2726 17.5617 17.8766 16.8074 18.3239 15.9554C19.0053 16.6249 20.1623 17.4114 20.5018 17.5754C20.7495 17.695 21.0331 17.7084 21.2903 17.6128C21.5475 17.5171 21.7573 17.3201 21.8735 17.0652C21.9896 16.8104 22.0027 16.5184 21.9097 16.2536C21.8168 15.9888 21.6255 15.7729 21.3779 15.6533Z" fill="#AD59D4"/>
<path d="M17.8598 12.3831C17.8598 12.1899 17.7218 12.0123 17.5295 11.8725C17.43 10.7125 16.9871 9.61195 16.2606 8.71935C16.3006 8.48044 16.2762 8.25429 16.1435 8.11761C16.0107 7.98092 15.791 7.95589 15.5589 7.99702C14.6918 7.24916 13.6227 6.79322 12.4958 6.69077C12.36 6.49288 12.1875 6.35077 11.9998 6.35077C11.8121 6.35077 11.6397 6.49288 11.5038 6.69077C10.377 6.79322 9.30783 7.24915 8.44072 7.99701C8.20865 7.95587 7.98896 7.98091 7.85618 8.11759C7.72339 8.25428 7.69908 8.48043 7.73904 8.71933C7.01255 9.61194 6.56964 10.7125 6.47011 11.8725C6.27787 12.0123 6.13983 12.1899 6.13983 12.3831C6.13983 12.5763 6.27788 12.7539 6.47012 12.8937C6.56964 14.0537 7.01255 15.1543 7.73904 16.0469C7.69908 16.2858 7.7234 16.5119 7.85618 16.6486C7.98896 16.7853 8.20865 16.8103 8.44073 16.7692C9.30783 17.5171 10.377 17.973 11.5038 18.0755C11.6396 18.2734 11.8121 18.4155 11.9998 18.4155C12.1875 18.4155 12.36 18.2734 12.4958 18.0755C13.6227 17.973 14.6918 17.5171 15.5589 16.7692C15.791 16.8103 16.0107 16.7853 16.1435 16.6486C16.2763 16.5119 16.3006 16.2858 16.2606 16.0469C16.9871 15.1543 17.43 14.0537 17.5295 12.8937C17.7218 12.7539 17.8598 12.5763 17.8598 12.3831Z" fill="#D8A353"/>
<path d="M11.9998 18.7693C11.7544 18.7693 11.5232 18.6466 11.3242 18.4124C10.2318 18.2852 9.19627 17.8436 8.33645 17.1382C8.03453 17.159 7.78673 17.0776 7.61311 16.8988C7.4395 16.7201 7.36034 16.4649 7.38058 16.1543C6.69542 15.2692 6.26644 14.2032 6.14284 13.0786C5.91532 12.8738 5.79608 12.6358 5.79608 12.3832C5.79608 12.1305 5.91532 11.8925 6.14281 11.6877C6.26643 10.5631 6.69542 9.49716 7.38058 8.61205C7.36033 8.3014 7.43947 8.04618 7.61313 7.86744C7.78679 7.68869 8.03453 7.60722 8.33644 7.62806C9.19626 6.92274 10.2318 6.48113 11.3242 6.35387C11.5232 6.11969 11.7544 5.99695 11.9998 5.99695C12.2453 5.99695 12.4764 6.11969 12.6754 6.35387C13.7679 6.48113 14.8034 6.92274 15.6632 7.62806C15.965 7.60733 16.2129 7.68866 16.3865 7.86746C16.5601 8.04625 16.6393 8.30138 16.6191 8.61205C17.3042 9.49714 17.7332 10.5631 17.8568 11.6877C18.0843 11.8925 18.2036 12.1305 18.2036 12.3831C18.2036 12.6358 18.0843 12.8738 17.8568 13.0786C17.7977 13.6131 17.6693 14.1371 17.4752 14.6366L16.8369 14.3737C17.0247 13.8903 17.1427 13.3811 17.1871 12.8625C17.1915 12.8114 17.2067 12.7618 17.2316 12.7173C17.2564 12.6728 17.2904 12.6344 17.3312 12.6047C17.4668 12.5061 17.5161 12.4181 17.5161 12.3831C17.5161 12.3481 17.4668 12.2602 17.3312 12.1615C17.2904 12.1319 17.2564 12.0935 17.2315 12.049C17.2067 12.0044 17.1915 11.9549 17.1871 11.9037C17.0946 10.8155 16.6791 9.78303 15.9969 8.94636C15.9649 8.90699 15.9416 8.86092 15.9287 8.81136C15.9157 8.7618 15.9134 8.70993 15.9219 8.65935C15.95 8.49071 15.9244 8.39263 15.9004 8.36786C15.8763 8.34309 15.781 8.31678 15.6172 8.34581C15.5681 8.35453 15.5177 8.35214 15.4695 8.33879C15.4214 8.32545 15.3766 8.30147 15.3384 8.26853C14.5256 7.56624 13.5226 7.13847 12.4655 7.04329C12.4158 7.03876 12.3677 7.02315 12.3244 6.99755C12.2812 6.97195 12.2439 6.93696 12.2151 6.89502C12.1192 6.75537 12.0338 6.70468 11.9998 6.70468C11.9658 6.70468 11.8804 6.75537 11.7845 6.89502C11.7557 6.93696 11.7184 6.97195 11.6752 6.99755C11.6319 7.02315 11.5838 7.03876 11.5341 7.04329C10.477 7.13847 9.47397 7.56624 8.66121 8.26853C8.62297 8.30146 8.57822 8.32543 8.53007 8.33877C8.48193 8.35212 8.43154 8.35452 8.3824 8.34581C8.21856 8.3168 8.1233 8.34309 8.09924 8.36784C8.07517 8.39259 8.04956 8.49073 8.07775 8.65937C8.08621 8.70995 8.08388 8.76182 8.07092 8.81138C8.05796 8.86094 8.03469 8.907 8.00271 8.94638C7.3205 9.78305 6.90494 10.8156 6.81247 11.9038C6.80807 11.9549 6.79291 12.0045 6.76804 12.049C6.74317 12.0935 6.70918 12.1319 6.66844 12.1616C6.53278 12.2602 6.48354 12.3481 6.48354 12.3832C6.48354 12.4182 6.53278 12.5061 6.66844 12.6048C6.70919 12.6344 6.74318 12.6728 6.76806 12.7173C6.79294 12.7618 6.8081 12.8114 6.81249 12.8626C6.90495 13.9507 7.3205 14.9833 8.0027 15.8199C8.03468 15.8593 8.05795 15.9054 8.07091 15.9549C8.08387 16.0045 8.0862 16.0564 8.07774 16.1069C8.04955 16.2756 8.07514 16.3737 8.09921 16.3984C8.12327 16.4232 8.21859 16.4495 8.38237 16.4205C8.43151 16.4118 8.48189 16.4142 8.53003 16.4276C8.57817 16.4409 8.62292 16.4648 8.66118 16.4978C9.47394 17.2 10.477 17.6278 11.5341 17.723C11.5838 17.7275 11.6319 17.7431 11.6752 17.7687C11.7184 17.7943 11.7557 17.8293 11.7845 17.8713C11.8804 18.0109 11.9658 18.0616 11.9998 18.0616C12.0338 18.0616 12.1192 18.0109 12.215 17.8713C12.2438 17.8293 12.2811 17.7943 12.3244 17.7687C12.3676 17.7431 12.4158 17.7275 12.4655 17.723C13.5226 17.6278 14.5256 17.2 15.3384 16.4978C15.3766 16.4648 15.4214 16.4409 15.4695 16.4275C15.5176 16.4142 15.568 16.4118 15.6172 16.4205C15.7811 16.4496 15.8763 16.4232 15.9003 16.3984C15.9244 16.3737 15.95 16.2755 15.9218 16.1069C15.9134 16.0563 15.9157 16.0045 15.9287 15.9549C15.9416 15.9053 15.9649 15.8593 15.9969 15.8199C16.195 15.576 16.3717 15.3145 16.525 15.0385L17.1219 15.3896C16.9733 15.6572 16.8052 15.9128 16.619 16.1542C16.6393 16.4648 16.5601 16.7201 16.3865 16.8988C16.2128 17.0776 15.9649 17.1588 15.6632 17.1382C14.8033 17.8435 13.7678 18.2851 12.6754 18.4124C12.4764 18.6466 12.2453 18.7693 11.9998 18.7693Z" fill="#8526FE"/>
<path d="M9.76562 10.6135C10.2402 10.6135 10.625 10.2175 10.625 9.72889C10.625 9.24031 10.2402 8.84424 9.76562 8.84424C9.29101 8.84424 8.90625 9.24031 8.90625 9.72889C8.90625 10.2175 9.29101 10.6135 9.76562 10.6135Z" fill="#AD59D4"/>
<path d="M9.76563 10.9674C9.52767 10.9674 9.29506 10.8947 9.09721 10.7587C8.89935 10.6226 8.74514 10.4291 8.65408 10.2028C8.56302 9.97652 8.5392 9.72749 8.58562 9.48725C8.63204 9.247 8.74663 9.02632 8.91489 8.85311C9.08315 8.6799 9.29752 8.56194 9.53091 8.51415C9.76429 8.46637 10.0062 8.49089 10.226 8.58463C10.4459 8.67837 10.6338 8.83712 10.766 9.04079C10.8982 9.24446 10.9688 9.48391 10.9688 9.72887C10.9684 10.0572 10.8415 10.372 10.616 10.6042C10.3904 10.8364 10.0846 10.967 9.76563 10.9674ZM9.76563 9.19808C9.66364 9.19808 9.56395 9.22921 9.47916 9.28753C9.39437 9.34586 9.32828 9.42875 9.28925 9.52574C9.25022 9.62273 9.24001 9.72946 9.25991 9.83242C9.2798 9.93538 9.32891 10.03 9.40102 10.1042C9.47314 10.1784 9.56501 10.229 9.66503 10.2495C9.76505 10.2699 9.86873 10.2594 9.96295 10.2193C10.0572 10.1791 10.1377 10.111 10.1944 10.0238C10.251 9.93647 10.2813 9.83385 10.2813 9.72887C10.2811 9.58814 10.2267 9.45323 10.1301 9.35372C10.0334 9.25421 9.90233 9.19824 9.76563 9.19808Z" fill="#8526FE"/>
<path d="M13.5469 16.2753C14.0215 16.2753 14.4062 15.8792 14.4062 15.3906C14.4062 14.9021 14.0215 14.506 13.5469 14.506C13.0723 14.506 12.6875 14.9021 12.6875 15.3906C12.6875 15.8792 13.0723 16.2753 13.5469 16.2753Z" fill="#AD59D4"/>
<path d="M13.5469 16.6292C13.3089 16.6292 13.0763 16.5565 12.8785 16.4205C12.6806 16.2844 12.5264 16.0909 12.4353 15.8646C12.3443 15.6383 12.3204 15.3893 12.3669 15.1491C12.4133 14.9088 12.5279 14.6881 12.6961 14.5149C12.8644 14.3417 13.0788 14.2237 13.3122 14.176C13.5455 14.1282 13.7874 14.1527 14.0073 14.2464C14.2271 14.3402 14.415 14.4989 14.5472 14.7026C14.6794 14.9063 14.75 15.1457 14.75 15.3907C14.7496 15.719 14.6228 16.0338 14.3972 16.266C14.1717 16.4982 13.8659 16.6288 13.5469 16.6292ZM13.5469 14.8599C13.4449 14.8599 13.3452 14.891 13.2604 14.9493C13.1756 15.0077 13.1095 15.0906 13.0705 15.1875C13.0315 15.2845 13.0213 15.3913 13.0412 15.4942C13.0611 15.5972 13.1102 15.6918 13.1823 15.766C13.2544 15.8402 13.3463 15.8908 13.4463 15.9113C13.5463 15.9317 13.65 15.9212 13.7442 15.8811C13.8384 15.8409 13.9189 15.7729 13.9756 15.6856C14.0323 15.5983 14.0625 15.4957 14.0625 15.3907C14.0623 15.2499 14.008 15.115 13.9113 15.0155C13.8146 14.916 13.6836 14.86 13.5469 14.8599Z" fill="#8526FE"/>
<path d="M9.25 15.2137C9.6297 15.2137 9.9375 14.8969 9.9375 14.506C9.9375 14.1151 9.6297 13.7983 9.25 13.7983C8.8703 13.7983 8.5625 14.1151 8.5625 14.506C8.5625 14.8969 8.8703 15.2137 9.25 15.2137Z" fill="#AD59D4"/>
<path d="M9.25 15.5676C9.04604 15.5676 8.84666 15.5053 8.67707 15.3886C8.50748 15.272 8.3753 15.1062 8.29725 14.9122C8.2192 14.7182 8.19877 14.5048 8.23857 14.2989C8.27836 14.0929 8.37657 13.9038 8.5208 13.7553C8.66502 13.6069 8.84877 13.5058 9.04881 13.4648C9.24886 13.4238 9.45621 13.4449 9.64464 13.5252C9.83308 13.6056 9.99414 13.7416 10.1075 13.9162C10.2208 14.0908 10.2813 14.296 10.2813 14.506C10.2809 14.7874 10.1722 15.0573 9.97887 15.2563C9.78554 15.4553 9.52341 15.5672 9.25 15.5676ZM9.25 14.1521C9.18201 14.1521 9.11555 14.1729 9.05902 14.2118C9.00249 14.2506 8.95843 14.3059 8.93242 14.3706C8.9064 14.4352 8.89959 14.5064 8.91286 14.575C8.92612 14.6437 8.95886 14.7067 9.00693 14.7562C9.05501 14.8057 9.11626 14.8394 9.18294 14.853C9.24962 14.8667 9.31874 14.8597 9.38155 14.8329C9.44436 14.8061 9.49805 14.7608 9.53582 14.7026C9.57359 14.6444 9.59375 14.576 9.59375 14.506C9.59365 14.4122 9.5574 14.3222 9.49295 14.2559C9.42851 14.1895 9.34114 14.1522 9.25 14.1521Z" fill="#8526FE"/>
<path d="M14.75 11.3213C15.1297 11.3213 15.4375 11.0044 15.4375 10.6135C15.4375 10.2227 15.1297 9.90582 14.75 9.90582C14.3703 9.90582 14.0625 10.2227 14.0625 10.6135C14.0625 11.0044 14.3703 11.3213 14.75 11.3213Z" fill="#AD59D4"/>
<path d="M14.75 11.6751C14.546 11.6751 14.3467 11.6128 14.1771 11.4962C14.0075 11.3795 13.8753 11.2138 13.7973 11.0198C13.7192 10.8258 13.6988 10.6123 13.7386 10.4064C13.7784 10.2005 13.8766 10.0113 14.0208 9.86287C14.165 9.71441 14.3488 9.6133 14.5488 9.57234C14.7489 9.53138 14.9562 9.5524 15.1446 9.63275C15.3331 9.7131 15.4941 9.84916 15.6075 10.0237C15.7208 10.1983 15.7812 10.4036 15.7812 10.6135C15.7809 10.895 15.6722 11.1648 15.4789 11.3638C15.2855 11.5628 15.0234 11.6748 14.75 11.6751ZM14.75 10.2597C14.682 10.2597 14.6156 10.2804 14.559 10.3193C14.5025 10.3582 14.4584 10.4134 14.4324 10.4781C14.4064 10.5428 14.3996 10.6139 14.4129 10.6826C14.4261 10.7512 14.4589 10.8143 14.5069 10.8637C14.555 10.9132 14.6163 10.9469 14.6829 10.9606C14.7496 10.9742 14.8187 10.9672 14.8815 10.9404C14.9444 10.9137 14.998 10.8683 15.0358 10.8101C15.0736 10.7519 15.0938 10.6835 15.0938 10.6135C15.0936 10.5197 15.0574 10.4298 14.993 10.3634C14.9285 10.2971 14.8411 10.2598 14.75 10.2597Z" fill="#8526FE"/>
<path d="M13.0312 7.78265H12.3438V8.49037H13.0312V7.78265Z" fill="#8526FE"/>
<path d="M8.21875 11.3212H7.53125V12.0289H8.21875V11.3212Z" fill="#8526FE"/>
<path d="M14.75 13.0906H14.0625V13.7983H14.75V13.0906Z" fill="#8526FE"/>
<path d="M12.6875 10.9674H12V11.6751H12.6875V10.9674Z" fill="#8526FE"/>
<path d="M12.6875 10.9674H12V11.6751H12.6875V10.9674Z" fill="#8526FE"/>
<path d="M10.9688 15.9214H10.2812V16.6292H10.9688V15.9214Z" fill="#8526FE"/>
<path d="M10.9688 15.9214H10.2812V16.6292H10.9688V15.9214Z" fill="#8526FE"/>
<path d="M7.76998 23.0903C7.53869 23.09 7.31123 23.0296 7.10864 22.9147C6.90605 22.7998 6.73489 22.6342 6.61099 22.4331C6.48709 22.2321 6.41446 22.0021 6.39983 21.7645C6.3852 21.5269 6.42903 21.2893 6.52727 21.0738C6.69124 20.714 7.32334 19.7275 7.92593 19.0083C7.33569 18.6243 6.8001 18.1577 6.3345 17.622C5.92782 18.1062 5.49105 18.5626 5.02696 18.9885C4.91864 19.3034 4.72593 19.5802 4.47114 19.787C4.21634 19.9938 3.90987 20.1222 3.58718 20.1571C3.26449 20.1921 2.93877 20.1323 2.64771 19.9847C2.35666 19.8371 2.11215 19.6076 1.94249 19.3229C1.77284 19.0382 1.68496 18.7098 1.68902 18.3758C1.69309 18.0419 1.78894 17.7159 1.96548 17.4356C2.14202 17.1554 2.39203 16.9323 2.68659 16.7922C2.98115 16.6521 3.30822 16.6008 3.62996 16.6441C4.14178 16.3713 4.66915 16.1305 5.20919 15.9232C4.95311 15.3989 4.75595 14.8461 4.62154 14.2758C4.0058 14.4553 3.42425 14.5812 3.17915 14.6026C2.81579 14.6345 2.45502 14.5164 2.17621 14.2745C1.8974 14.0325 1.72339 13.6864 1.69246 13.3123C1.66153 12.9383 1.77621 12.5669 2.01127 12.2799C2.24633 11.9929 2.58252 11.8138 2.94589 11.7819C3.19189 11.7604 3.78801 11.7834 4.42627 11.8537C4.46977 11.2354 4.58554 10.6248 4.77107 10.0351C3.87806 9.8718 2.8218 9.53962 2.49475 9.38166C2.16514 9.22187 1.9106 8.93396 1.78704 8.58113C1.66347 8.22831 1.68099 7.83943 1.83574 7.4999C1.99049 7.16036 2.26982 6.89792 2.61238 6.77023C2.95495 6.64253 3.33274 6.66001 3.6628 6.81882C3.99178 6.97772 4.91961 7.60494 5.6132 8.20958C5.96252 7.6518 6.37975 7.14234 6.85472 6.6936C6.35102 6.2521 5.8784 5.77434 5.44042 5.26394C5.12723 5.19248 4.83971 5.03222 4.6104 4.8013C4.38108 4.57037 4.21912 4.27799 4.14283 3.95724C4.06654 3.63649 4.07897 3.30016 4.17872 2.98629C4.27846 2.67243 4.46153 2.39357 4.70723 2.18125C4.95292 1.96893 5.25144 1.83162 5.569 1.78486C5.88656 1.7381 6.21049 1.78375 6.50416 1.91666C6.79783 2.04956 7.0495 2.26441 7.23072 2.5369C7.41194 2.80939 7.51546 3.12864 7.52959 3.45855C7.7537 3.84144 8.17968 4.72033 8.4612 5.53003C8.56003 5.47673 8.65975 5.4258 8.76037 5.37725L9.05208 6.0181C8.84325 6.11889 8.63949 6.23045 8.44158 6.35237C8.39656 6.38012 8.34598 6.39689 8.29369 6.4014C8.24141 6.4059 8.18881 6.39803 8.13994 6.37838C8.09107 6.35873 8.04721 6.32783 8.01174 6.28804C7.97626 6.24824 7.9501 6.20062 7.93527 6.14881C7.69028 5.29319 7.11782 4.09714 6.90015 3.75708C6.86206 3.69754 6.84231 3.62755 6.8435 3.55626L6.84372 3.53633C6.84369 3.33267 6.78676 3.13333 6.67971 2.96206C6.57266 2.7908 6.42002 2.65485 6.23998 2.57042C6.05995 2.48599 5.86012 2.45666 5.66434 2.48591C5.46856 2.51516 5.28508 2.60177 5.13579 2.7354C4.98651 2.86904 4.87771 3.04405 4.82238 3.23958C4.76705 3.43511 4.76752 3.64289 4.82374 3.83815C4.87995 4.0334 4.98954 4.2079 5.13944 4.34081C5.28933 4.47372 5.4732 4.55945 5.66911 4.58776C5.75333 4.59978 5.83022 4.64351 5.88494 4.7105C6.22517 5.12688 6.98152 5.92547 7.59782 6.39719C7.63971 6.42925 7.67396 6.47073 7.69797 6.51845C7.72197 6.56618 7.7351 6.61891 7.73636 6.67264C7.73761 6.72637 7.72696 6.77969 7.70521 6.82855C7.68347 6.87741 7.65119 6.92053 7.61084 6.95463C6.95771 7.50597 6.40869 8.17631 5.99121 8.93218C5.96537 8.97888 5.92954 9.01891 5.88644 9.04923C5.84333 9.07955 5.79409 9.09936 5.74243 9.10717C5.69078 9.11498 5.63808 9.11057 5.58833 9.09428C5.53857 9.07799 5.49308 9.05025 5.4553 9.01317C4.78412 8.35437 3.66397 7.60114 3.37079 7.45954C3.28903 7.41991 3.20049 7.39726 3.11022 7.39289C3.01996 7.38851 2.92974 7.4025 2.84473 7.43405C2.75972 7.4656 2.68158 7.51409 2.61479 7.57675C2.548 7.63941 2.49387 7.71501 2.45549 7.79923C2.4171 7.88344 2.39523 7.97462 2.3911 8.06755C2.38698 8.16047 2.4007 8.25333 2.43147 8.34079C2.46223 8.42826 2.50945 8.50862 2.57042 8.57729C2.63138 8.64595 2.7049 8.70157 2.78676 8.74096C3.07861 8.88191 4.35386 9.28635 5.27456 9.39754C5.32667 9.40383 5.37669 9.42232 5.42078 9.45159C5.46488 9.48086 5.50188 9.52013 5.52895 9.56639C5.55602 9.61265 5.57245 9.66468 5.57697 9.71849C5.58149 9.7723 5.57399 9.82646 5.55504 9.87682C5.26861 10.6372 5.11314 11.4431 5.09562 12.2584C5.09452 12.3082 5.08324 12.3571 5.06252 12.4021C5.0418 12.447 5.0121 12.487 4.97536 12.5193C4.93862 12.5516 4.89567 12.5756 4.84931 12.5897C4.80296 12.6038 4.75423 12.6077 4.70632 12.6011C3.95489 12.4975 3.223 12.4681 3.00419 12.4871C2.91423 12.495 2.82666 12.5211 2.74648 12.5638C2.6663 12.6065 2.59508 12.6651 2.53689 12.7361C2.41936 12.8796 2.36202 13.0653 2.37749 13.2523C2.39296 13.4394 2.47997 13.6124 2.61938 13.7334C2.75878 13.8544 2.93917 13.9134 3.12085 13.8975C3.33892 13.8784 4.05403 13.7223 4.77653 13.4901C4.82278 13.4752 4.87156 13.4706 4.91968 13.4765C4.96779 13.4824 5.01415 13.4987 5.05571 13.5243C5.09727 13.55 5.1331 13.5844 5.16084 13.6253C5.18858 13.6662 5.2076 13.7126 5.21666 13.7616C5.35842 14.5305 5.62405 15.2696 6.00258 15.9483C6.02829 15.9944 6.04357 16.0458 6.0473 16.0988C6.05103 16.1519 6.04311 16.2051 6.02412 16.2545C6.00514 16.3039 5.97558 16.3483 5.93764 16.3844C5.89971 16.4204 5.85437 16.4472 5.80499 16.4628C5.17764 16.6603 4.37094 17.0381 3.84976 17.3248C3.77871 17.3639 3.6966 17.376 3.61773 17.3592C3.42116 17.3169 3.21685 17.3345 3.02988 17.41C2.84292 17.4855 2.68144 17.6156 2.56526 17.7842C2.44908 17.9528 2.38326 18.1527 2.37587 18.3593C2.36848 18.5659 2.41985 18.7703 2.52368 18.9472C2.6275 19.1242 2.77926 19.2661 2.96033 19.3556C3.14139 19.445 3.34389 19.4781 3.54295 19.4507C3.74202 19.4234 3.929 19.3368 4.08094 19.2016C4.23289 19.0664 4.34318 18.8885 4.39828 18.6897C4.41673 18.6229 4.45383 18.5633 4.50497 18.5181C4.87247 18.1932 5.58871 17.4816 6.05564 16.8527C6.08733 16.8101 6.12805 16.7754 6.1747 16.7513C6.22136 16.7272 6.27272 16.7144 6.3249 16.7138C6.37709 16.7132 6.42872 16.7249 6.47588 16.7478C6.52304 16.7708 6.5645 16.8046 6.59711 16.8465C7.15675 17.5676 7.84797 18.1691 8.63185 18.6171C8.67812 18.6436 8.71782 18.6807 8.74785 18.7256C8.77788 18.7705 8.79743 18.8219 8.80498 18.8759C8.81252 18.9298 8.80787 18.9848 8.79136 19.0366C8.77486 19.0884 8.74696 19.1356 8.70984 19.1744C8.06856 19.8458 7.29215 21.0619 7.14965 21.3744C7.07251 21.5443 7.06402 21.7388 7.12604 21.9151C7.18807 22.0914 7.31554 22.2352 7.48045 22.3148C7.64537 22.3945 7.83426 22.4035 8.00563 22.3399C8.177 22.2763 8.31684 22.1453 8.39445 21.9756C8.53706 21.6627 8.94948 20.2699 9.0409 19.333C9.04618 19.2789 9.06353 19.2267 9.0916 19.1806C9.11966 19.1345 9.15769 19.0956 9.20271 19.0671C9.24774 19.0386 9.29855 19.0211 9.3512 19.0161C9.40385 19.0111 9.45692 19.0186 9.50627 19.0381C10.245 19.3308 11.0277 19.4888 11.8191 19.505C11.8675 19.506 11.9151 19.5175 11.9588 19.5388C12.0026 19.5601 12.0415 19.5907 12.073 19.6285C12.1045 19.6663 12.1279 19.7106 12.1416 19.7583C12.1553 19.8061 12.1591 19.8563 12.1527 19.9057C12.0523 20.6787 12.0237 21.4314 12.0423 21.6561C12.0499 21.7487 12.0752 21.8389 12.1167 21.9214C12.1582 22.0039 12.2151 22.0773 12.2842 22.1372C12.3532 22.1971 12.433 22.2424 12.519 22.2706C12.6051 22.2987 12.6957 22.3091 12.7856 22.3013C12.8756 22.2934 12.9631 22.2673 13.0433 22.2246C13.1235 22.1819 13.1947 22.1233 13.2529 22.0523C13.3111 21.9812 13.3551 21.8991 13.3825 21.8105C13.4098 21.7219 13.42 21.6287 13.4123 21.5361C13.3937 21.3113 13.2419 20.5744 13.016 19.83C13.0016 19.7825 12.9971 19.7323 13.0028 19.6828C13.0085 19.6334 13.0242 19.5857 13.0491 19.5429C13.0739 19.5002 13.1072 19.4633 13.1469 19.4347C13.1865 19.4061 13.2316 19.3865 13.2791 19.377C14.0622 19.2223 14.8128 18.9272 15.4969 18.5053C15.5419 18.4776 15.5925 18.4608 15.6447 18.4563C15.697 18.4518 15.7496 18.4597 15.7985 18.4793C15.8474 18.499 15.8912 18.5299 15.9267 18.5697C15.9622 18.6095 15.9883 18.6571 16.0032 18.7089C16.1918 19.3676 16.5604 20.1946 16.8188 20.7026C16.8586 20.7809 16.8686 20.8717 16.8466 20.9571C16.7952 21.1568 16.8015 21.3677 16.8648 21.5638C16.9281 21.7598 17.0455 21.9327 17.2028 22.061C17.3601 22.1894 17.5504 22.2677 17.7503 22.2864C17.9502 22.3051 18.151 22.2634 18.3282 22.1663C18.5054 22.0692 18.6512 21.921 18.7478 21.7398C18.8443 21.5587 18.8874 21.3525 18.8718 21.1465C18.8562 20.9405 18.7825 20.7437 18.6599 20.5801C18.5372 20.4166 18.3708 20.2935 18.1811 20.2258C18.1232 20.2052 18.0716 20.1689 18.0318 20.1209C17.7128 19.7352 16.9716 18.9435 16.3406 18.4605C16.2987 18.4285 16.2645 18.387 16.2405 18.3393C16.2164 18.2916 16.2033 18.2388 16.2021 18.1851C16.2008 18.1314 16.2115 18.0781 16.2332 18.0292C16.255 17.9803 16.2872 17.9372 16.3276 17.9031C17.0208 17.3183 17.5963 16.5995 18.0216 15.7874C18.0468 15.7395 18.0823 15.6982 18.1255 15.6668C18.1686 15.6354 18.2182 15.6146 18.2705 15.6061C18.3227 15.5976 18.3761 15.6016 18.4266 15.6178C18.477 15.6341 18.5232 15.662 18.5614 15.6996C19.2324 16.3589 20.3541 17.1133 20.648 17.2553C20.813 17.3341 21.0015 17.3425 21.1725 17.2785C21.3434 17.2146 21.4827 17.0835 21.56 16.914C21.6372 16.7445 21.6461 16.5504 21.5846 16.3742C21.5231 16.198 21.3964 16.054 21.232 15.9739C20.9422 15.8339 19.626 15.4191 18.7189 15.3143C18.6672 15.3083 18.6175 15.2904 18.5736 15.2618C18.5296 15.2332 18.4925 15.1947 18.4651 15.1492C18.4377 15.1037 18.4207 15.0524 18.4153 14.9992C18.4099 14.9459 18.4164 14.8921 18.4341 14.8418C18.7024 14.0822 18.8412 13.2807 18.8445 12.4725C18.8448 12.4222 18.8554 12.3726 18.8757 12.3269C18.8961 12.2812 18.9256 12.2405 18.9624 12.2075C18.9992 12.1745 19.0424 12.1499 19.0892 12.1354C19.1359 12.1209 19.1851 12.1169 19.2335 12.1235C19.9805 12.2256 20.7066 12.2546 20.923 12.2357C21.1047 12.2198 21.2728 12.1302 21.3904 11.9867C21.5079 11.8432 21.5652 11.6575 21.5498 11.4705C21.5343 11.2835 21.4473 11.1104 21.3079 10.9895C21.1685 10.8685 20.9881 10.8094 20.8064 10.8254C20.5858 10.8447 19.8644 11.0025 19.137 11.2372C19.0912 11.252 19.0429 11.2567 18.9953 11.2512C18.9476 11.2456 18.9016 11.2298 18.8602 11.2048C18.8188 11.1798 18.783 11.1462 18.755 11.1061C18.727 11.066 18.7075 11.0203 18.6976 10.9719C18.5435 10.2106 18.2675 9.48098 17.881 8.81283C17.8539 8.76605 17.8377 8.71349 17.8336 8.65923C17.8295 8.60496 17.8377 8.55045 17.8574 8.49995C17.8771 8.44944 17.9078 8.40429 17.9473 8.36802C17.9867 8.33175 18.0337 8.30532 18.0847 8.29081C18.6919 8.1178 19.5347 7.73243 20.1005 7.42722C20.1752 7.38701 20.2615 7.37636 20.3432 7.3973C20.5383 7.44751 20.7433 7.43795 20.9331 7.36978C21.123 7.30162 21.2893 7.17784 21.4117 7.01365C21.5341 6.84946 21.6072 6.65204 21.622 6.44565C21.6368 6.23926 21.5927 6.0329 21.4951 5.85197C21.3976 5.67103 21.2507 5.5234 21.0727 5.42723C20.8947 5.33106 20.6933 5.29054 20.4932 5.31067C20.2931 5.33079 20.1031 5.41067 19.9465 5.54049C19.7899 5.67031 19.6736 5.8444 19.6119 6.04136C19.5925 6.10335 19.5569 6.15863 19.5089 6.2011C19.1159 6.54921 18.3253 7.34041 17.8769 7.98167C17.8459 8.0259 17.8055 8.06218 17.7587 8.08767C17.7119 8.11317 17.66 8.12719 17.6071 8.12865C17.5542 8.13011 17.5016 8.11896 17.4536 8.09608C17.4055 8.0732 17.3633 8.03921 17.3301 7.99675C16.7724 7.28205 16.0852 6.68563 15.3066 6.24062C15.2604 6.21413 15.2207 6.17699 15.1906 6.1321C15.1606 6.08721 15.141 6.03579 15.1335 5.98185C15.1259 5.9279 15.1306 5.87289 15.1471 5.82111C15.1636 5.76932 15.1915 5.72216 15.2286 5.68329C15.87 5.01184 16.6463 3.79583 16.7888 3.48331C16.8271 3.39917 16.849 3.30808 16.8531 3.21524C16.8573 3.1224 16.8436 3.02962 16.8129 2.94221C16.7823 2.85481 16.7352 2.77447 16.6743 2.70581C16.6135 2.63714 16.5401 2.58148 16.4584 2.542C16.3766 2.50253 16.2881 2.48001 16.1979 2.47574C16.1078 2.47147 16.0176 2.48553 15.9327 2.51711C15.8478 2.5487 15.7698 2.59719 15.7031 2.65982C15.6364 2.72245 15.5823 2.79799 15.544 2.88213C15.4013 3.19502 14.9889 4.58782 14.8975 5.52467C14.8922 5.57883 14.8749 5.631 14.8468 5.67713C14.8187 5.72326 14.7807 5.7621 14.7357 5.79064C14.6906 5.81917 14.6398 5.83663 14.5872 5.84165C14.5345 5.84667 14.4815 5.83912 14.4321 5.81959C13.6934 5.52693 12.9107 5.36895 12.1193 5.35273C12.0709 5.35171 12.0233 5.34017 11.9796 5.31889C11.9358 5.29761 11.8969 5.26706 11.8654 5.22924C11.8339 5.19141 11.8105 5.14717 11.7968 5.0994C11.7831 5.05164 11.7793 5.00142 11.7857 4.95205C11.8861 4.1791 11.9147 3.42639 11.8962 3.20158C11.8807 3.01456 11.7937 2.84152 11.6543 2.72053C11.5149 2.59955 11.3345 2.54053 11.1528 2.55645C10.9711 2.57237 10.803 2.66194 10.6855 2.80545C10.568 2.94895 10.5106 3.13464 10.5261 3.32167C10.5447 3.54637 10.6965 4.28318 10.9224 5.02772C10.9368 5.07527 10.9414 5.12542 10.9357 5.17489C10.93 5.22436 10.9142 5.27203 10.8893 5.31479C10.8645 5.35755 10.8312 5.39443 10.7916 5.42302C10.7519 5.4516 10.7069 5.47125 10.6593 5.48068C10.336 5.54486 10.0176 5.63288 9.70657 5.74404L9.48085 5.07554C9.7027 4.99617 9.92976 4.9271 10.1594 4.86913C9.98447 4.23418 9.86195 3.63436 9.84107 3.38166C9.81014 3.00761 9.92482 2.63624 10.1599 2.34923C10.395 2.06222 10.7311 1.8831 11.0945 1.85126C11.4579 1.81942 11.8186 1.93747 12.0974 2.17945C12.3763 2.42143 12.5503 2.76751 12.5812 3.14156C12.6021 3.39434 12.5798 4.00686 12.5117 4.66289C13.11 4.70615 13.701 4.82322 14.2721 5.01157C14.424 4.0744 14.7574 2.9418 14.9215 2.58153C15.0771 2.2428 15.3568 1.98138 15.6993 1.85457C16.0418 1.72777 16.4191 1.74593 16.7486 1.90507C17.0781 2.0642 17.3329 2.35134 17.4571 2.70353C17.5813 3.05573 17.5648 3.44424 17.4111 3.78391C17.2472 4.14357 16.6151 5.13019 16.0125 5.84936C16.5948 6.22826 17.1239 6.68747 17.5852 7.21419C18.0182 6.68411 18.4881 6.18705 18.991 5.72694C19.1087 5.41526 19.3097 5.1443 19.5709 4.94547C19.8321 4.74664 20.1426 4.62809 20.4666 4.60356C20.7906 4.57904 21.1146 4.64954 21.4012 4.8069C21.6879 4.96426 21.9253 5.20203 22.086 5.49263C22.2467 5.78324 22.324 6.11478 22.3091 6.44882C22.2942 6.78285 22.1877 7.1057 22.0018 7.37992C21.8159 7.65414 21.5583 7.8685 21.2589 7.99815C20.9594 8.1278 20.6304 8.16742 20.31 8.11243C19.7829 8.39012 19.239 8.63272 18.6817 8.83873C18.941 9.35182 19.1435 9.8933 19.2853 10.453C19.9086 10.2701 20.4993 10.1419 20.7481 10.1201C20.9281 10.1044 21.1092 10.1252 21.2813 10.1815C21.4534 10.2379 21.613 10.3285 21.7511 10.4483C21.8891 10.5681 22.0029 10.7148 22.0859 10.8798C22.1689 11.0449 22.2195 11.2252 22.2348 11.4104C22.2501 11.5956 22.2299 11.7821 22.1752 11.9593C22.1205 12.1364 22.0324 12.3007 21.916 12.4429C21.7996 12.585 21.6572 12.7021 21.4968 12.7875C21.3364 12.873 21.1613 12.9251 20.9814 12.9408C20.739 12.9622 20.1515 12.9398 19.5205 12.8712C19.4877 13.4823 19.3843 14.0873 19.2127 14.6733C20.1132 14.834 21.1889 15.1713 21.5241 15.3331C21.8542 15.4926 22.1093 15.7805 22.2332 16.1336C22.3571 16.4866 22.3397 16.8759 22.1848 17.2158C22.0299 17.5556 21.7502 17.8182 21.4073 17.9458C21.0643 18.0733 20.6861 18.0554 20.356 17.896C20.0273 17.7372 19.1034 17.1127 18.4104 16.5094C18.0446 17.1216 17.5981 17.6786 17.0835 18.1644C17.5863 18.606 18.0585 19.0832 18.4968 19.5924C18.7968 19.7193 19.0556 19.9311 19.2435 20.2032C19.4315 20.4752 19.5407 20.7965 19.5588 21.1298C19.5768 21.4631 19.5028 21.7949 19.3454 22.0867C19.188 22.3786 18.9535 22.6186 18.6692 22.7791C18.3848 22.9396 18.0621 23.0139 17.7385 22.9936C17.4148 22.9732 17.1033 22.859 16.84 22.6641C16.5767 22.4692 16.3724 22.2016 16.2507 21.8922C16.1289 21.5828 16.0947 21.2442 16.152 20.9157C15.8968 20.4005 15.6716 19.8702 15.4776 19.3276C14.9396 19.618 14.3692 19.84 13.7791 19.9887C13.9539 20.6234 14.0764 21.2233 14.0974 21.476C14.1127 21.6612 14.0924 21.8477 14.0377 22.0248C13.983 22.202 13.8949 22.3663 13.7785 22.5084C13.6621 22.6505 13.5197 22.7677 13.3593 22.8531C13.199 22.9385 13.0238 22.9906 12.8439 23.0064C12.664 23.0222 12.4828 23.0013 12.3107 22.945C12.1387 22.8887 11.979 22.798 11.841 22.6782C11.7029 22.5584 11.5892 22.4118 11.5062 22.2467C11.4232 22.0816 11.3726 21.9013 11.3572 21.7161C11.3363 21.4634 11.3586 20.8509 11.4267 20.1948C10.8284 20.1515 10.2374 20.0344 9.66634 19.8461C9.5145 20.7833 9.1811 21.9159 9.0169 22.2762C8.9056 22.5198 8.72923 22.7257 8.50842 22.8699C8.2876 23.014 8.03147 23.0905 7.76998 23.0903Z" fill="#8526FE"/>
</g>
<defs>
<clipPath id="clip0_635_511">
<rect width="22" height="22.6471" fill="white" transform="translate(1 1.05859)"/>
</clipPath>
</defs>
</svg>
