<svg width="22" height="23" viewBox="0 0 22 23" fill="none" xmlns="http://www.w3.org/2000/svg">
<g clip-path="url(#clip0_635_494)">
<path d="M7.17085 0.773438C6.43272 0.773438 5.8349 1.30721 5.8349 1.96436C5.8349 2.62148 6.43272 3.15526 7.17085 3.15526V7.12468C3.16353 7.9189 0.491638 11.334 0.491638 14.6675C0.491638 18.8322 4.27889 22.2087 8.95176 22.2087C13.6247 22.2087 17.4114 18.8322 17.4114 14.6675C17.4114 11.334 14.7405 7.9189 10.7322 7.12466V3.15526C11.4718 3.15526 12.0691 2.62148 12.0691 1.96436C12.0691 1.30721 11.4718 0.773438 10.7322 0.773438H7.17085Z" fill="#8526FE"/>
<path d="M0.492071 13.1889C0.142238 18.6984 4.27934 22.209 8.95219 22.209C13.6251 22.209 17.5555 18.6059 17.4118 13.1889" fill="#AD59D4"/>
<path d="M11.4403 16.2953C11.8992 16.2953 12.2697 16.6256 12.2697 17.0342C12.2697 17.4421 11.8992 17.7736 11.4403 17.7736C10.9818 17.7736 10.6113 17.4421 10.6113 17.0342C10.6113 16.6256 10.9818 16.2953 11.4403 16.2953ZM8.12401 17.7736C8.58197 17.7736 8.95246 18.1039 8.95246 18.5122C8.95246 18.9204 8.58195 19.252 8.12401 19.252C7.6646 19.252 7.29457 18.9204 7.29457 18.5122C7.29457 18.1039 7.66458 17.7736 8.12401 17.7736ZM6.46511 14.8169C6.92359 14.8169 7.29457 15.1472 7.29457 15.5563C7.29457 15.9642 6.92356 16.2953 6.46511 16.2953C6.00619 16.2953 5.63568 15.9642 5.63568 15.5563C5.63568 15.1472 6.00619 14.8169 6.46511 14.8169V14.8169Z" fill="black"/>
<path d="M11.2247 6.78258V3.53499C11.9951 3.34308 12.5616 2.71207 12.5616 1.96539C12.5616 1.06664 11.7413 0.335815 10.7327 0.335815H7.17129C6.16309 0.335815 5.34326 1.06664 5.34326 1.96539C5.34326 2.71207 5.90937 3.34308 6.67918 3.53499V6.78258C2.84485 7.71647 0 11.0433 0 14.6685C0 19.0689 4.01599 22.6485 8.9522 22.6485C13.8884 22.6485 17.9039 19.0689 17.9039 14.6685C17.9039 11.0429 15.0591 7.71647 11.2247 6.78258ZM6.32744 1.96539C6.32744 1.55071 6.7061 1.21313 7.17129 1.21313H10.7327C11.1983 1.21313 11.5775 1.55071 11.5775 1.96539C11.5775 2.38006 11.1983 2.71764 10.7327 2.71764H7.17129C6.7061 2.71764 6.32744 2.38006 6.32744 1.96539ZM8.9522 21.7711C4.5585 21.7711 0.984177 18.5848 0.984177 14.6685C0.984177 11.3239 3.69016 8.26522 7.27796 7.55411C7.50334 7.5091 7.66336 7.33134 7.66336 7.12572V3.59495H10.2406V7.12572C10.2406 7.33134 10.4006 7.50913 10.626 7.55411C14.2138 8.2648 16.9198 11.3235 16.9198 14.6685C16.9198 18.5848 13.3454 21.7711 8.9522 21.7711Z" fill="black"/>
<path d="M8.32877 9.22784C5.30709 9.22784 2.84857 11.419 2.84857 14.1125C2.84857 14.3549 3.06866 14.5511 3.34065 14.5511C3.61263 14.5511 3.83272 14.3549 3.83272 14.1125C3.83272 11.9029 5.8496 10.1052 8.32877 10.1052C8.60078 10.1052 8.82087 9.90896 8.82087 9.6665C8.82087 9.42404 8.60078 9.22784 8.32877 9.22784Z" fill="black"/>
<path d="M18.6865 0.522117C20.0998 0.403881 21.2176 0.447135 21.2647 0.449288C21.3459 0.452718 21.4213 0.490837 21.4656 0.551244C21.4878 0.581243 21.5018 0.615524 21.5063 0.65127C21.5108 0.687015 21.5057 0.723204 21.4915 0.756862C21.4751 0.796281 21.0787 1.72929 20.3987 2.83967C19.477 4.34416 18.5207 5.39543 17.5558 5.96174C16.3111 6.69299 15.1242 6.55893 14.35 6.31647C13.5206 6.05856 12.9857 5.6319 12.9636 5.61347C12.9473 5.60019 12.9329 5.58647 12.9213 5.57019C12.9093 5.55476 12.9002 5.53678 12.8935 5.5188C12.8829 5.49308 12.6541 4.8865 12.7152 4.10555C12.7719 3.37515 13.1006 2.35133 14.3457 1.62005C15.3111 1.05331 16.7715 0.683606 18.6865 0.522117Z" fill="#D8A353"/>
<path d="M21.8775 0.311257C21.7468 0.133466 21.5267 0.0212402 21.2893 0.0109706C21.2413 0.00884041 20.1336 -0.0395705 18.64 0.0855265C16.6448 0.253451 15.1085 0.646703 14.0748 1.25373C12.6615 2.08351 12.2881 3.24614 12.2237 4.07509C12.1675 4.80076 12.3304 5.37565 12.3976 5.57571L10.6446 6.67234C10.4221 6.81159 10.3682 7.08488 10.5244 7.28323C10.6201 7.40488 10.7724 7.47001 10.9276 7.47001C11.0286 7.4701 11.1272 7.44226 11.2097 7.39032L13.0646 6.22983C13.3343 6.39004 13.7172 6.58411 14.1867 6.73017C14.6471 6.87455 15.1171 6.94781 15.5832 6.94781C16.3718 6.94781 17.1263 6.73919 17.8259 6.32793C18.8577 5.72263 19.8688 4.61953 20.8303 3.04994C21.5372 1.89543 21.9486 0.918288 21.952 0.911023C22.0356 0.71137 22.0073 0.486469 21.8775 0.311257ZM19.9664 2.62926C19.0831 4.07163 18.1806 5.06931 17.2844 5.59538C16.4271 6.0996 15.464 6.2007 14.5116 5.90212C14.2968 5.8353 14.1142 5.75604 13.9493 5.67677L14.4876 5.33964L16.356 5.59024C16.3805 5.59325 16.4055 5.59495 16.4295 5.59495C16.6693 5.59495 16.8788 5.43902 16.9158 5.22141C16.9561 4.98193 16.7712 4.75833 16.5021 4.72234L15.6558 4.60882L18.8077 2.6374C19.0302 2.49816 19.0841 2.22484 18.9279 2.02651C18.7722 1.82818 18.4656 1.77977 18.2426 1.91942L14.9027 4.00865L15.2079 2.9711C15.2766 2.73678 15.1195 2.49688 14.8566 2.43519C14.5938 2.37651 14.3247 2.51401 14.2554 2.74835L13.6942 4.65765C13.6831 4.69535 13.687 4.73219 13.687 4.76903L13.2646 5.03335C13.2184 4.81058 13.1776 4.49401 13.2059 4.13587C13.255 3.50445 13.5395 2.61854 14.6159 1.98624C15.514 1.4589 16.899 1.11319 18.7323 0.959008C19.6828 0.878891 20.4829 0.874182 20.9063 0.879743C20.7415 1.23402 20.4176 1.89243 19.9664 2.62926Z" fill="#53435B"/>
</g>
<defs>
<clipPath id="clip0_635_494">
<rect width="22" height="22.6471" fill="white"/>
</clipPath>
</defs>
</svg>
