<svg width="22" height="23" viewBox="0 0 22 23" fill="none" xmlns="http://www.w3.org/2000/svg">
<path d="M7.97451 9.88073C7.90044 9.88074 7.82939 9.85046 7.77701 9.79655C7.72463 9.74263 7.6952 9.66951 7.69519 9.59326C7.69518 9.51701 7.7246 9.44388 7.77697 9.38995C7.82934 9.33603 7.90038 9.30573 7.97445 9.30573H13.9711C14.0483 9.30573 14.1181 9.338 14.1686 9.38992C14.2076 9.43014 14.2342 9.48136 14.2449 9.53712C14.2557 9.59287 14.2501 9.65065 14.229 9.70316C14.2079 9.75568 14.1721 9.80057 14.1262 9.83217C14.0803 9.86378 14.0264 9.88068 13.9712 9.88073" fill="#AD59D4"/>
<path d="M15.0193 11.432C15.0193 11.5083 14.9898 11.5814 14.9374 11.6354C14.885 11.6893 14.814 11.7196 14.7399 11.7197L7.22119 11.7195C7.18451 11.7196 7.14819 11.7121 7.1143 11.6977C7.08041 11.6832 7.04962 11.6621 7.02369 11.6354C6.99776 11.6087 6.97719 11.577 6.96317 11.5421C6.94914 11.5072 6.94193 11.4698 6.94196 11.432C6.94193 11.3943 6.94913 11.3569 6.96316 11.322C6.97718 11.2871 6.99775 11.2554 7.02369 11.2287C7.04963 11.202 7.08043 11.1808 7.11433 11.1664C7.14823 11.1519 7.18456 11.1445 7.22125 11.1445H14.74C14.7767 11.1445 14.813 11.1519 14.8469 11.1664C14.8808 11.1808 14.9116 11.202 14.9376 11.2287C14.9635 11.2554 14.9841 11.2871 14.9981 11.322C15.0121 11.3569 15.0193 11.3943 15.0193 11.432Z" fill="#8526FE"/>
<path d="M14.2504 13.2721C14.2504 13.3099 14.2432 13.3473 14.2291 13.3822C14.2151 13.4171 14.1945 13.4488 14.1686 13.4755C14.1427 13.5022 14.1119 13.5234 14.078 13.5379C14.044 13.5523 14.0077 13.5598 13.971 13.5597H7.97454C7.93784 13.5597 7.90151 13.5523 7.86761 13.5379C7.83371 13.5234 7.80291 13.5022 7.77697 13.4755C7.75103 13.4488 7.73046 13.4171 7.71642 13.3822C7.70239 13.3473 7.69518 13.3099 7.69519 13.2721C7.69522 13.1959 7.72465 13.1228 7.77702 13.0689C7.82939 13.0149 7.90042 12.9846 7.97448 12.9846L13.9711 12.9847C14.0483 12.9847 14.1181 13.0169 14.1686 13.0689C14.1946 13.0956 14.2152 13.1272 14.2292 13.1621C14.2433 13.197 14.2504 13.2344 14.2504 13.2721Z" fill="#AD59D4"/>
<path d="M14.1374 19.5843C14.1374 19.6221 14.1302 19.6595 14.1162 19.6944C14.1022 19.7292 14.0816 19.7609 14.0557 19.7876C14.0297 19.8144 13.9989 19.8355 13.965 19.85C13.9311 19.8644 13.8948 19.8718 13.8581 19.8718H8.14786C8.11117 19.8718 8.07485 19.8644 8.04095 19.8499C8.00706 19.8355 7.97626 19.8143 7.95031 19.7876C7.89792 19.7337 7.86847 19.6606 7.86846 19.5843C7.86844 19.508 7.89786 19.4349 7.95024 19.381C8.00261 19.327 8.07366 19.2967 8.14775 19.2967L13.8582 19.2967C13.8949 19.2967 13.9312 19.3041 13.9651 19.3186C13.999 19.333 14.0298 19.3542 14.0557 19.3809C14.0816 19.4076 14.1022 19.4393 14.1162 19.4742C14.1303 19.5091 14.1374 19.5465 14.1374 19.5843ZM14.1375 3.27944C14.1375 3.35567 14.1081 3.42877 14.0557 3.48268C14.0033 3.53659 13.9323 3.5669 13.8583 3.56694H8.14775C8.07366 3.5669 8.00262 3.53658 7.95023 3.48265C7.89784 3.42872 7.86839 3.35559 7.86835 3.27933C7.86838 3.20308 7.89781 3.12997 7.95018 3.07606C8.00255 3.02215 8.07357 2.99185 8.14764 2.99182H13.8581C13.9353 2.99182 14.0051 3.02404 14.0557 3.07607C14.0817 3.10276 14.1022 3.13446 14.1163 3.16936C14.1303 3.20426 14.1376 3.24166 14.1375 3.27944Z" fill="#8526FE"/>
<path d="M10.9998 5.89686C9.51598 4.92026 8.33804 3.95821 8.33804 2.24961C8.33793 1.89948 8.06233 1.6156 7.72215 1.6156C7.38192 1.6156 7.10637 1.89954 7.10626 2.24961C7.10637 4.35674 8.40866 5.62198 9.85467 6.63713C10.2295 6.39192 10.6175 6.14852 10.9998 5.89686ZM15.4973 11.4323C15.4973 9.03432 13.8109 7.72668 12.1453 6.63719C11.7738 6.89797 11.3856 7.1472 10.9999 7.39439C12.7549 8.51984 14.2657 9.4974 14.2656 11.4323C14.2656 15.5146 7.10632 15.6149 7.10632 20.615C7.10632 20.965 7.38198 21.249 7.7221 21.2489C8.06227 21.2489 8.33799 20.9651 8.33799 20.6148C8.33799 16.534 15.4973 16.4449 15.4973 11.4323Z" fill="#5FE4D4"/>
<path d="M7.73398 11.4321C7.73381 7.32843 14.8932 7.2811 14.8931 2.24955C14.8932 1.89942 14.6174 1.6156 14.2773 1.6156C13.9372 1.61554 13.6614 1.89942 13.6615 2.24949C13.6615 6.31634 6.50225 6.4426 6.5022 11.4321C6.5022 13.83 8.18861 15.1377 9.85428 16.2271C10.2218 15.9691 10.6152 15.7162 10.9995 15.4701C9.24466 14.3446 7.73392 13.3671 7.73398 11.4321ZM14.8932 20.6148C14.8932 18.623 13.7445 17.3502 12.1449 16.2273C11.7686 16.4734 11.3853 16.7137 10.9996 16.9674C12.4834 17.9441 13.6615 18.9062 13.6614 20.6147C13.6614 20.965 13.9372 21.2488 14.2773 21.2488C14.6174 21.2487 14.8932 20.9649 14.8932 20.6148Z" fill="#D8A353"/>
</svg>
