<svg width="24" height="24" viewBox="0 0 24 24" fill="none" xmlns="http://www.w3.org/2000/svg">
<g clip-path="url(#clip0_635_193)">
<path d="M10.8091 5.99206C10.7475 5.43441 10.786 4.84619 11.2803 4.50958L11.293 4.50081C11.689 4.2326 12.1448 4.43472 12.4137 4.78701C12.6254 5.06432 12.6684 5.48812 12.6279 5.83379L12.6018 5.99975C12.5784 6.0013 10.9632 5.98989 10.8091 5.99206Z" fill="#D8A353"/>
<path d="M11.6957 2.81053C11.7571 2.81731 11.8296 2.80839 11.892 2.80785C12.6533 2.80128 13.416 2.98508 13.9815 3.54884C14.3957 3.96174 14.0046 4.38634 13.6324 4.29465C13.5233 4.26779 13.4041 4.16143 13.3112 4.09602C12.9111 3.81469 12.516 3.6562 12.0354 3.63677C11.8684 3.63464 11.6554 3.61674 11.4935 3.65999L11.21 3.72412C10.9888 3.7836 10.7697 3.87361 10.5709 3.99014C10.4235 4.07649 10.2799 4.20819 10.1233 4.27104C9.76601 4.41433 9.37951 3.96546 9.66233 3.63942C10.093 3.14286 11.0863 2.84569 11.6957 2.81053Z" fill="#5FE4D4"/>
<path d="M11.6292 1.22976C12.934 1.19799 14.2017 1.58649 15.1962 2.49052C15.5113 2.77693 15.1798 3.34586 14.8199 3.23993C14.7303 3.21353 14.6402 3.13197 14.5691 3.07078L14.3182 2.86526C13.7034 2.39088 12.9181 2.0853 12.1476 2.06447C11.057 2.06233 10.1513 2.2668 9.25419 2.97657C9.17341 3.0405 9.09581 3.11245 9.00793 3.16615L8.99449 3.17426C8.81526 3.2848 8.59604 3.17481 8.49966 2.99831L8.49252 2.9847C8.28675 2.60656 8.7041 2.35138 8.9684 2.1691C9.74605 1.63268 10.7009 1.32082 11.6292 1.22976Z" fill="#5FE4D4"/>
<path d="M3.22653 10.3641L3.26079 10.3657C3.26887 10.404 3.20062 10.5245 3.18533 10.5744C3.12372 10.7755 3.12538 10.9822 3.11646 11.1908L3.12705 13.0589L3.4026 15.8633C2.67994 16.1112 1.87358 15.6021 1.76498 14.8318C1.7369 14.6327 1.7525 14.4162 1.75239 14.2152L1.75373 11.7065C1.76397 11.0826 2.20452 10.5624 2.78813 10.4248C2.93117 10.3911 3.08069 10.3787 3.22653 10.3641ZM20.04 10.335L20.049 10.3395C20.2428 10.4103 20.4657 10.4319 20.6674 10.4802C21.6583 10.7179 22.2467 11.391 22.2483 12.4289L22.2485 13.8287C22.2485 13.9931 22.2597 14.1683 22.2337 14.3308C22.0772 15.3117 21.2741 15.8915 20.35 15.9051C20.2477 15.9066 20.132 15.9059 20.0323 15.8812L19.864 15.8261C19.8599 15.7188 19.8769 15.609 19.8898 15.5025L20.0257 13.8994C20.1089 12.8515 20.1241 11.3892 20.04 10.335ZM10.8086 5.9967C10.9627 5.98918 12.578 6.00059 12.6013 5.98865L13.9654 6.16522C15.2814 6.35631 16.0064 6.55093 16.705 7.83107C16.9357 8.2538 17.0652 8.71833 17.274 9.14853C17.01 9.13602 16.7451 9.06772 16.4863 9.0142L15.3193 8.76588C13.4121 8.35359 11.4951 8.21797 9.55774 8.49566L6.22563 9.1308C6.15413 9.14606 6.07993 9.1687 6.0077 9.17755C6.34857 8.22496 6.96392 7.01772 7.85153 6.555C8.28418 6.3295 8.81081 6.26218 9.28445 6.18522L10.8086 5.9967ZM5.45864 16.7872L5.46917 16.7901C5.54166 16.8108 5.60963 16.8435 5.68019 16.8698L7.39267 17.3932L8.23421 17.6964C8.84076 17.9118 9.50205 18.0778 9.90127 17.4187C10.2689 16.8117 10.2734 15.8991 11.0219 15.5166C11.6666 15.1871 12.2467 15.7617 12.5454 16.3077C12.9046 16.9643 13.1143 18.0198 14.0674 17.8546C14.4321 17.7914 14.7885 17.6434 15.1412 17.5312L16.8356 17.0249C17.0075 16.9763 17.2118 16.8793 17.3893 16.8765C17.31 16.9755 17.2535 17.0914 17.1838 17.1976L16.6198 18.0503C15.4702 19.6964 13.1868 21.8863 11.1362 21.6973C9.40683 21.5379 7.59552 19.8148 6.61021 18.4724L6.02531 17.6203C5.84394 17.3384 5.66893 17.0475 5.45864 16.7872Z" fill="#8526FE"/>
<path d="M6.00806 9.17813C6.08029 9.16929 6.1545 9.14664 6.226 9.13138L9.5581 8.49624C11.4955 8.21855 13.4125 8.35417 15.3197 8.76646L16.4866 9.01478C16.7454 9.0683 17.0104 9.1366 17.2743 9.14912C17.3892 9.21153 17.5437 9.23794 17.6693 9.27571C18.2582 9.453 18.8214 9.59481 19.3351 9.95446C19.5831 10.1281 19.7459 10.2447 20.0375 10.3356C20.1245 11.3898 20.1093 12.852 20.0261 13.9L19.8901 15.5031C19.8773 15.6096 19.8603 15.7194 19.8643 15.8267C19.8529 15.897 19.8479 15.9736 19.8274 16.0415C19.7152 16.4139 19.253 16.6256 18.9046 16.642C18.4732 16.6623 17.7318 16.6421 17.3896 16.877C17.2122 16.8799 17.0079 16.9769 16.8359 17.0254L15.1416 17.5318C14.7889 17.6439 14.4325 17.792 14.0678 17.8552C13.1147 18.0204 12.9049 16.9648 12.5458 16.3083C12.247 15.7623 11.667 15.1877 11.0223 15.5172C10.2738 15.8997 10.2693 16.8122 9.90164 17.4193C9.50241 18.0783 8.84112 17.9124 8.23458 17.697L7.39303 17.3938L5.68055 16.8704C5.61 16.844 5.54202 16.8113 5.46953 16.7906L5.45901 16.7878C5.38579 16.7178 5.34939 16.7244 5.24748 16.7153L4.64304 16.6848C4.19198 16.6561 3.74194 16.6068 3.51965 16.1302C3.48231 16.0502 3.46251 15.9515 3.41349 15.8788L3.40296 15.8639L3.12742 13.0595L3.11682 11.1913C3.12574 10.9828 3.12409 10.7761 3.1857 10.575C3.20098 10.5251 3.26924 10.4046 3.26115 10.3663L3.22689 10.3647C3.33475 10.3511 3.37714 10.2261 3.43994 10.1438C3.76091 9.72299 4.19083 9.60989 4.67375 9.49404L5.58615 9.29464C5.68837 9.2735 5.95199 9.27257 6.00806 9.17813Z" fill="#D8A353"/>
<path d="M11.078 9.85229C12.9577 9.79766 15.1701 10.0796 16.92 10.8275C17.3612 11.0161 17.9823 11.2296 18.1131 11.7677L18.1178 11.7876C18.1558 11.9472 18.1434 12.1745 18.1317 12.3381C18.0876 12.9567 18.1403 13.5769 18.0816 14.1958C18.0175 14.8697 17.6083 15.554 17.0102 15.8501C16.4465 16.1293 15.7768 16.2507 15.1634 16.3338L14.4771 16.4012C14.3118 16.412 14.1517 16.4257 13.9868 16.4011C13.1008 16.269 12.9009 15.1138 11.8784 14.7471C10.3178 14.2457 9.93511 16.1863 8.86536 16.376C8.57648 16.4272 8.25675 16.3957 7.96637 16.3616C6.65887 16.2076 5.11882 15.8122 4.85651 14.2622L4.83685 12.1954C4.84245 11.3315 5.22631 11.1606 5.97141 10.8527C7.30602 10.3013 8.9253 10.0001 10.3633 9.88577L11.078 9.85229Z" fill="#5FE4D4"/>
</g>
<defs>
<clipPath id="clip0_635_193">
<rect width="22" height="22.6471" fill="white" transform="translate(1 1.05859)"/>
</clipPath>
</defs>
</svg>
