<svg width="29" height="28" viewBox="0 0 29 28" fill="none" xmlns="http://www.w3.org/2000/svg">
<g clip-path="url(#clip0_517_19840)">
<path d="M26.6048 9.83501L22.1878 10.787L7.24976 14L2.10476 15.106C1.71093 15.1924 1.35857 15.4111 1.10639 15.7257C0.854197 16.0403 0.717395 16.4318 0.71876 16.835V26.229C0.71876 27.209 1.50276 28 2.46876 28H26.9688C27.9348 28 28.7188 27.209 28.7188 26.229V11.571C28.7188 11.032 28.4808 10.528 28.0678 10.192C27.8658 10.0277 27.6294 9.9109 27.3761 9.85032C27.1229 9.78973 26.8593 9.78689 26.6048 9.84201V9.83501Z" fill="#9B66FF"/>
<path d="M20.7318 -2.02078e-05H8.8248C8.5913 -0.0037263 8.35936 0.038602 8.14222 0.124547C7.92509 0.210493 7.72701 0.338371 7.5593 0.500879C7.39159 0.663388 7.25754 0.857342 7.1648 1.07166C7.07206 1.28599 7.02245 1.51648 7.0188 1.74998V19.25C7.0188 20.216 7.8238 21 8.8248 21H20.6128C20.8463 21.0037 21.0782 20.9614 21.2954 20.8754C21.5125 20.7895 21.7106 20.6616 21.8783 20.4991C22.046 20.3366 22.1801 20.1426 22.2728 19.9283C22.3655 19.714 22.4152 19.4835 22.4188 19.25V1.74998C22.4191 1.29656 22.2434 0.860731 21.9287 0.534295C21.614 0.207858 21.1849 0.0163027 20.7318 -2.02078e-05Z" fill="url(#paint0_linear_517_19840)"/>
<path d="M22.4188 10.738V19.25C22.4188 20.216 21.6138 21 20.6128 21H8.8248C8.5913 21.0037 8.35936 20.9614 8.14222 20.8754C7.92509 20.7895 7.72701 20.6616 7.5593 20.4991C7.39159 20.3366 7.25754 20.1426 7.1648 19.9283C7.07206 19.714 7.02245 19.4835 7.0188 19.25V14.049L7.2498 14L22.1878 10.787L22.4188 10.738Z" fill="url(#paint1_linear_517_19840)"/>
</g>
<defs>
<linearGradient id="paint0_linear_517_19840" x1="14.7188" y1="1.37898" x2="14.7188" y2="12.32" gradientUnits="userSpaceOnUse">
<stop stop-color="#11EFE3"/>
<stop offset="0.33" stop-color="#15E8E2"/>
<stop offset="0.74" stop-color="#1FD3E0"/>
<stop offset="1" stop-color="#21CFE0"/>
</linearGradient>
<linearGradient id="paint1_linear_517_19840" x1="22.4188" y1="15.869" x2="4.4568" y2="15.869" gradientUnits="userSpaceOnUse">
<stop stop-color="#0048E5"/>
<stop offset="0.64" stop-color="#625AF5"/>
<stop offset="1" stop-color="#8A62FC"/>
</linearGradient>
<clipPath id="clip0_517_19840">
<rect width="28" height="28" fill="white" transform="translate(0.71875)"/>
</clipPath>
</defs>
</svg>
