<svg width="29" height="28" viewBox="0 0 29 28" fill="none" xmlns="http://www.w3.org/2000/svg">
<g clip-path="url(#clip0_517_19803)">
<path d="M22.3124 2.79999H8.52235C7.93435 2.79999 7.38135 3.10099 7.05935 3.59799C6.9011 3.84447 6.80672 4.12647 6.78472 4.41855C6.76272 4.71063 6.8138 5.00359 6.93335 5.27099L10.5034 13.293C10.7134 13.741 10.7134 14.259 10.5034 14.707L5.83435 25.2H22.3124C22.9914 25.2 23.6143 24.794 23.8944 24.164L28.0803 14.714C28.2903 14.259 28.2903 13.741 28.0803 13.286L23.8944 3.83599C23.759 3.52886 23.5376 3.26754 23.2568 3.08368C22.976 2.89981 22.648 2.80127 22.3124 2.79999Z" fill="#9966FF"/>
<path d="M5.29542 25.2C5.0582 25.1998 4.82395 25.1472 4.60942 25.046H4.63742C4.25401 24.8751 3.94734 24.5684 3.77642 24.185L0.388418 16.471C0.270291 16.2048 0.219365 15.9137 0.240115 15.6232C0.260864 15.3327 0.352655 15.0517 0.507418 14.805C0.661228 14.5593 0.874807 14.3566 1.1282 14.2158C1.3816 14.075 1.66654 14.0008 1.95642 14H15.6064C16.2854 14 16.8944 14.399 17.1674 15.022L20.5274 22.617L21.0034 23.688C21.0734 23.842 21.1644 23.982 21.2694 24.108C21.6124 24.556 22.1094 25.018 22.6554 25.165C22.5784 25.186 22.4454 25.2 22.2704 25.2H5.28842H5.29542Z" fill="url(#paint0_linear_517_19803)"/>
<path d="M15.6133 14C16.2434 14 16.8174 14.35 17.1114 14.91L17.1674 15.022L20.5274 22.617L21.0034 23.688C21.3562 24.333 21.9269 24.8317 22.6133 25.095L22.7394 25.144C22.5994 25.179 22.4594 25.2 22.3124 25.2H5.83435L10.5034 14.7C10.6084 14.476 10.6574 14.238 10.6574 13.993H15.6133V14Z" fill="url(#paint1_linear_517_19803)"/>
</g>
<defs>
<linearGradient id="paint0_linear_517_19803" x1="11.4414" y1="24.913" x2="11.4414" y2="14.812" gradientUnits="userSpaceOnUse">
<stop stop-color="#21CFE0"/>
<stop offset="0.17" stop-color="#20D1E0"/>
<stop offset="0.38" stop-color="#18E2E2"/>
<stop offset="0.61" stop-color="#13ECE3"/>
<stop offset="1" stop-color="#11EFE3"/>
</linearGradient>
<linearGradient id="paint1_linear_517_19803" x1="14.9834" y1="30.1" x2="14.9834" y2="10.15" gradientUnits="userSpaceOnUse">
<stop stop-color="#0048E5"/>
<stop offset="1" stop-color="#9B66FF"/>
</linearGradient>
<clipPath id="clip0_517_19803">
<rect width="28" height="28" fill="white" transform="translate(0.234375)"/>
</clipPath>
</defs>
</svg>
