<svg width="29" height="28" viewBox="0 0 29 28" fill="none" xmlns="http://www.w3.org/2000/svg">
<g clip-path="url(#clip0_517_19868)">
<path d="M23.9868 14.763C20.9908 14.763 17.6238 12.691 14.7188 10.696C11.6388 8.56799 8.25075 5.76099 5.45075 5.76099C2.59475 5.76099 0.71875 8.37199 0.71875 10.696V10.892C0.71875 14.605 2.19375 18.166 4.81925 20.7915C7.44476 23.417 11.0057 24.892 14.7188 24.892C18.4318 24.892 21.9927 23.417 24.6182 20.7915C27.2438 18.166 28.7188 14.605 28.7188 10.892C28.6278 12.768 27.2978 14.763 23.9868 14.763Z" fill="url(#paint0_linear_517_19868)"/>
<path d="M23.9868 5.76802C21.1868 5.76802 17.7987 8.56802 14.7188 10.696C11.8137 12.691 8.44675 14.756 5.45075 14.756C2.13975 14.756 0.80975 12.768 0.71875 10.892C0.71875 14.6051 2.19375 18.166 4.81925 20.7915C7.44476 23.417 11.0057 24.892 14.7188 24.892C18.4318 24.892 21.9927 23.417 24.6182 20.7915C27.2438 18.166 28.7188 14.6051 28.7188 10.892V10.696C28.7188 8.37202 26.8498 5.76102 23.9868 5.76802Z" fill="url(#paint1_linear_517_19868)"/>
<path d="M14.7188 10.696C17.6238 12.691 20.9908 14.756 23.9868 14.756C27.2978 14.756 28.6278 12.768 28.7188 10.892C28.7188 14.605 27.2438 18.166 24.6182 20.7915C21.9927 23.417 18.4318 24.892 14.7188 24.892C11.0057 24.892 7.44476 23.417 4.81925 20.7915C2.19375 18.166 0.71875 14.605 0.71875 10.892C0.80975 12.768 2.13975 14.763 5.45075 14.763C8.44675 14.763 11.8137 12.691 14.7188 10.696Z" fill="url(#paint2_linear_517_19868)"/>
</g>
<defs>
<linearGradient id="paint0_linear_517_19868" x1="14.7188" y1="14.441" x2="14.7188" y2="6.69899" gradientUnits="userSpaceOnUse">
<stop stop-color="#FFD748"/>
<stop offset="0.21" stop-color="#FFD644"/>
<stop offset="0.33" stop-color="#FFD438"/>
<stop offset="0.45" stop-color="#FFD024"/>
<stop offset="0.57" stop-color="#FFCB09"/>
<stop offset="1" stop-color="#FFC900"/>
</linearGradient>
<linearGradient id="paint1_linear_517_19868" x1="14.7188" y1="6.69202" x2="14.7188" y2="15.33" gradientUnits="userSpaceOnUse">
<stop stop-color="#009C00"/>
<stop offset="1" stop-color="#00BA18"/>
</linearGradient>
<linearGradient id="paint2_linear_517_19868" x1="14.7188" y1="24.696" x2="14.7188" y2="10.696" gradientUnits="userSpaceOnUse">
<stop offset="0.13" stop-color="#00CB1B"/>
<stop offset="1" stop-color="#00D924"/>
</linearGradient>
<clipPath id="clip0_517_19868">
<rect width="28" height="28" fill="white" transform="translate(0.71875)"/>
</clipPath>
</defs>
</svg>
