<svg width="29" height="29" viewBox="0 0 29 29" fill="none" xmlns="http://www.w3.org/2000/svg">
<g clip-path="url(#clip0_517_19812)">
<path d="M8.96332 0.589038C6.62205 0.737303 4.4283 1.78335 2.83925 3.50917C1.2502 5.235 0.388448 7.50747 0.433571 9.853C0.478695 12.1985 1.42722 14.4362 3.08147 16.0996C4.73572 17.763 6.96808 18.7239 9.31332 18.782H16.6983C17.6573 18.782 18.4343 18.012 18.4343 17.046V9.68904C18.4363 8.46185 18.1899 7.24696 17.7099 6.11755C17.2299 4.98813 16.5263 3.96756 15.6413 3.11731C14.7564 2.26707 13.7086 1.60474 12.5609 1.17023C11.4132 0.735723 10.1894 0.538022 8.96332 0.589038Z" fill="url(#paint0_linear_517_19812)"/>
<path d="M19.5054 28.575C21.8467 28.4268 24.0405 27.3807 25.6295 25.6549C27.2186 23.9291 28.0803 21.6566 28.0352 19.3111C27.9901 16.9655 27.0415 14.7279 25.3873 13.0645C23.733 11.401 21.5007 10.4401 19.1554 10.382H11.7704C11.31 10.382 10.8685 10.5649 10.5429 10.8905C10.2173 11.216 10.0344 11.6576 10.0344 12.118V19.475C10.0324 20.7022 10.2788 21.9171 10.7588 23.0465C11.2389 24.1759 11.9425 25.1965 12.8274 26.0467C13.7123 26.897 14.7602 27.5593 15.9079 27.9938C17.0555 28.4283 18.2793 28.626 19.5054 28.575Z" fill="#0073E6"/>
<path d="M18.4344 10.3821V17.0461C18.4344 17.5065 18.2515 17.948 17.926 18.2736C17.6004 18.5992 17.1588 18.7821 16.6984 18.7821H10.0344V12.1181C10.0335 11.6764 10.201 11.251 10.5027 10.9285C10.8044 10.606 11.2177 10.4106 11.6584 10.3821L11.7704 10.3751H18.4344V10.3821Z" fill="url(#paint1_linear_517_19812)"/>
</g>
<defs>
<linearGradient id="paint0_linear_517_19812" x1="9.33432" y1="1.77904" x2="9.33432" y2="11.257" gradientUnits="userSpaceOnUse">
<stop stop-color="#11EFE3"/>
<stop offset="0.33" stop-color="#15E8E2"/>
<stop offset="0.74" stop-color="#1FD3E0"/>
<stop offset="1" stop-color="#21CFE0"/>
</linearGradient>
<linearGradient id="paint1_linear_517_19812" x1="14.2344" y1="11.5861" x2="14.2344" y2="19.6501" gradientUnits="userSpaceOnUse">
<stop stop-color="#00299C"/>
<stop offset="1" stop-color="#0073E6"/>
</linearGradient>
<clipPath id="clip0_517_19812">
<rect width="28" height="28" fill="white" transform="translate(0.234375 0.582031)"/>
</clipPath>
</defs>
</svg>
