<svg width="29" height="28" viewBox="0 0 29 28" fill="none" xmlns="http://www.w3.org/2000/svg">
<path d="M14.7188 6.76672L20.0177 12.8505C20.5915 13.5094 20.5915 14.4905 20.0177 15.1493L14.7188 21.2331L9.41984 15.1493C8.84605 14.4905 8.84605 13.5094 9.41984 12.8505L14.7188 6.76672Z" fill="url(#paint0_linear_517_19850)"/>
<path d="M14.7188 21.2332L17.6506 24.5994C17.983 24.981 18.4642 25.2 18.9703 25.2H24.8687C25.8352 25.2 26.6187 24.4165 26.6187 23.45V4.54999C26.6187 3.58349 25.8352 2.79999 24.8687 2.79999H18.9703C18.4642 2.79999 17.983 3.01902 17.6506 3.40061L14.7188 6.7668L20.0177 12.8506C20.5915 13.5094 20.5915 14.4905 20.0177 15.1494L14.7188 21.2332Z" fill="#00D924"/>
<path d="M14.7187 6.7668L9.4198 12.8506C8.84601 13.5094 8.84601 14.4905 9.4198 15.1494L14.7187 21.2332L11.7868 24.5994C11.4545 24.981 10.9732 25.2 10.4672 25.2H4.56873C3.60223 25.2 2.81873 24.4165 2.81873 23.45V4.54999C2.81873 3.58349 3.60223 2.79999 4.56873 2.79999H10.4672C10.9732 2.79999 11.4545 3.01902 11.7868 3.40061L14.7187 6.7668Z" fill="url(#paint1_linear_517_19850)"/>
<defs>
<linearGradient id="paint0_linear_517_19850" x1="3.51879" y1="13.6499" x2="29.4188" y2="13.6499" gradientUnits="userSpaceOnUse">
<stop stop-color="#00D924"/>
<stop offset="1" stop-color="#00A600"/>
</linearGradient>
<linearGradient id="paint1_linear_517_19850" x1="19.9687" y1="14" x2="0.725852" y2="13.6302" gradientUnits="userSpaceOnUse">
<stop stop-color="#11EFE3"/>
<stop offset="1" stop-color="#21CFE0"/>
</linearGradient>
</defs>
</svg>
