<svg width="29" height="28" viewBox="0 0 29 28" fill="none" xmlns="http://www.w3.org/2000/svg">
<g clip-path="url(#clip0_517_19859)">
<path d="M10.4488 4.15098C10.5919 3.57814 10.9183 3.06776 11.3783 2.69752C11.8382 2.32727 12.4066 2.11745 12.9968 2.09998H26.9898C28.1518 2.09998 28.8938 3.01698 28.6558 4.15098L24.3158 24.528C24.2218 24.9089 24.0063 25.2488 23.7019 25.4963C23.3975 25.7439 23.0208 25.8856 22.6288 25.9H5.84277L10.4488 4.15098Z" fill="url(#paint0_linear_517_19859)"/>
<path d="M0.788794 15.351C0.550794 14.217 1.29279 13.3 2.45479 13.3H16.4478C17.0356 13.3205 17.6007 13.5316 18.0578 13.9017C18.515 14.2717 18.8393 14.7804 18.9818 15.351L20.9348 24.528C21.0288 24.9089 21.2443 25.2488 21.5487 25.4963C21.853 25.7439 22.2297 25.8856 22.6218 25.9H4.43579C3.66579 25.9 2.90279 25.284 2.74179 24.528L0.788794 15.358V15.351Z" fill="#9A66FF"/>
<path d="M22.6287 25.9C21.8517 25.9 21.0887 25.284 20.9347 24.528L18.9817 15.358C18.8405 14.7861 18.5168 14.2758 18.0595 13.9044C17.6023 13.5331 17.0364 13.3209 16.4477 13.3H8.51673L5.84973 25.9H22.6217H22.6287Z" fill="url(#paint1_linear_517_19859)"/>
</g>
<defs>
<linearGradient id="paint0_linear_517_19859" x1="17.2738" y1="2.09298" x2="17.2738" y2="25.9" gradientUnits="userSpaceOnUse">
<stop stop-color="#FF5091"/>
<stop offset="1" stop-color="#E03071"/>
</linearGradient>
<linearGradient id="paint1_linear_517_19859" x1="14.2357" y1="13.3" x2="14.2357" y2="25.9" gradientUnits="userSpaceOnUse">
<stop stop-color="#6E00F5"/>
<stop offset="1" stop-color="#9860FE"/>
</linearGradient>
<clipPath id="clip0_517_19859">
<rect width="28" height="28" fill="white" transform="translate(0.71875)"/>
</clipPath>
</defs>
</svg>
