<svg width="26" height="24" viewBox="0 0 26 24" fill="none" xmlns="http://www.w3.org/2000/svg">
<path d="M15.2494 0.704415C15.1582 0.629014 15.0529 0.572711 14.9396 0.538856C14.8262 0.505002 14.7073 0.494286 14.5897 0.507348C14.4721 0.520409 14.3584 0.55698 14.2553 0.614886C14.1522 0.672792 14.0617 0.750849 13.9894 0.844415L10.7694 4.91841L0.234375 18.1974C0.423375 18.3514 0.612375 18.5124 0.780375 18.6874C1.07195 18.9704 1.33674 19.2797 1.57137 19.6114L1.64137 19.7024C1.8576 20.0187 2.04502 20.3537 2.20137 20.7034C2.40437 21.1374 2.55137 21.5994 2.65637 22.0684C2.74681 22.4546 2.96577 22.7987 3.27737 23.0441C3.58897 23.2896 3.97471 23.4219 4.37137 23.4194H24.9304C25.0489 23.4194 25.1663 23.3958 25.2755 23.3498C25.3848 23.3038 25.4837 23.2364 25.5665 23.1517C25.6494 23.0669 25.7144 22.9664 25.7578 22.8561C25.8012 22.7458 25.8222 22.6279 25.8194 22.5094C25.6892 18.3361 24.6805 14.2371 22.8592 10.4799C21.0379 6.72276 18.4449 3.39181 15.2494 0.704415Z" fill="#9A66FF"/>
</svg>
