<svg width="29" height="29" viewBox="0 0 29 29" fill="none" xmlns="http://www.w3.org/2000/svg">
<g clip-path="url(#clip0_517_19788)">
<path fill-rule="evenodd" clip-rule="evenodd" d="M1.6344 7.59606C1.6344 6.93106 1.9844 6.31505 2.5654 5.98605L11.4904 0.834055C11.7735 0.670631 12.0946 0.584595 12.4214 0.584595C12.7482 0.584595 13.0693 0.670631 13.3524 0.834055L22.2774 5.98605C22.5601 6.14926 22.7949 6.38392 22.9583 6.66649C23.1217 6.94907 23.208 7.26964 23.2084 7.59606V11.7961L19.7084 9.77306C19.4253 9.60963 19.1042 9.52359 18.7774 9.52359C18.4506 9.52359 18.1295 9.60963 17.8464 9.77306L11.1894 13.6091C10.9054 13.7714 10.6692 14.0056 10.5045 14.2883C10.3399 14.5709 10.2526 14.892 10.2514 15.2191V22.8841C10.2514 23.5141 10.5664 24.0881 11.0844 24.4311L2.5654 19.5171C2.28271 19.3538 2.0479 19.1192 1.88449 18.8366C1.72109 18.554 1.63484 18.2335 1.6344 17.9071V7.59606Z" fill="url(#paint0_linear_517_19788)"/>
<path fill-rule="evenodd" clip-rule="evenodd" d="M11.0844 24.431L11.4904 24.669C12.0644 25.005 12.7784 25.005 13.3524 24.669L22.2774 19.517C22.56 19.3538 22.7949 19.1192 22.9583 18.8366C23.1217 18.554 23.2079 18.2335 23.2084 17.907V11.803L26.3374 13.609C26.62 13.7722 26.8549 14.0069 27.0183 14.2895C27.1817 14.5721 27.2679 14.8926 27.2684 15.219V22.884C27.2684 23.549 26.9184 24.165 26.3374 24.494L19.7014 28.33C19.1274 28.666 18.4204 28.666 17.8464 28.33L11.1894 24.501L11.0844 24.431Z" fill="#9966FF"/>
<path fill-rule="evenodd" clip-rule="evenodd" d="M23.2083 11.803L19.7083 9.77302C19.4253 9.6096 19.1042 9.52356 18.7773 9.52356C18.4505 9.52356 18.1294 9.6096 17.8463 9.77302L11.1893 13.609C10.9054 13.7713 10.6691 14.0056 10.5045 14.2882C10.3398 14.5709 10.2525 14.8919 10.2513 15.219V22.884C10.2513 23.514 10.5663 24.088 11.0843 24.431L11.4903 24.669C12.0643 25.005 12.7783 25.005 13.3523 24.669L22.2773 19.517C22.56 19.3538 22.7948 19.1192 22.9582 18.8366C23.1216 18.554 23.2079 18.2334 23.2083 17.907V11.803Z" fill="url(#paint1_linear_517_19788)"/>
</g>
<defs>
<linearGradient id="paint0_linear_517_19788" x1="12.4214" y1="2.15006" x2="12.1344" y2="23.1081" gradientUnits="userSpaceOnUse">
<stop stop-color="#11EFE3"/>
<stop offset="0.33" stop-color="#15E8E2"/>
<stop offset="0.74" stop-color="#1FD3E0"/>
<stop offset="1" stop-color="#21CFE0"/>
</linearGradient>
<linearGradient id="paint1_linear_517_19788" x1="15.5993" y1="29.149" x2="21.6473" y2="7.27402" gradientUnits="userSpaceOnUse">
<stop stop-color="#0048E5"/>
<stop offset="0.64" stop-color="#625AF5"/>
<stop offset="1" stop-color="#8A62FC"/>
</linearGradient>
<clipPath id="clip0_517_19788">
<rect width="28" height="28" fill="white" transform="translate(0.234375 0.582031)"/>
</clipPath>
</defs>
</svg>
