<svg width="29" height="28" viewBox="0 0 29 28" fill="none" xmlns="http://www.w3.org/2000/svg">
<path d="M24.4614 7.89689C24.262 7.56906 23.9627 7.31387 23.6074 7.16889L6.21243 0.140894C5.93816 0.0290976 5.64053 -0.0132532 5.34596 0.0176015C5.05139 0.0484562 4.769 0.151562 4.52385 0.317765C4.2787 0.483969 4.07838 0.708129 3.94067 0.970346C3.80295 1.23256 3.73211 1.52472 3.73443 1.82089V10.5009C3.73443 11.2359 4.18243 11.9009 4.86143 12.1809L9.36943 14.0009L24.4614 20.1049C24.6434 19.8249 24.7414 19.4889 24.7344 19.1529V8.84889C24.7344 8.51289 24.6434 8.17689 24.4614 7.88989V7.89689Z" fill="url(#paint0_linear_517_19778)"/>
<path d="M24.4754 7.89648L9.37639 14.0005L4.86139 15.8205C4.5273 15.956 4.24143 16.1885 4.04058 16.4879C3.83973 16.7873 3.73309 17.14 3.73439 17.5005V26.1945C3.73493 26.4895 3.80771 26.7798 3.94638 27.0401C4.08504 27.3005 4.28536 27.5229 4.52983 27.688C4.7743 27.853 5.05548 27.9557 5.34878 27.987C5.64209 28.0183 5.9386 27.9772 6.21239 27.8675L23.6144 20.8325C23.9644 20.6855 24.2654 20.4335 24.4614 20.1045C24.6434 19.8175 24.7414 19.4885 24.7344 19.1525V8.84848C24.7344 8.51248 24.6504 8.18348 24.4754 7.89648Z" fill="#9966FF"/>
<path d="M24.4683 7.896L24.5383 8.015C24.6643 8.274 24.7343 8.554 24.7343 8.848V8.827V19.152C24.7343 19.488 24.6433 19.817 24.4613 20.104L9.37634 14L24.4683 7.896Z" fill="url(#paint1_linear_517_19778)"/>
<defs>
<linearGradient id="paint0_linear_517_19778" x1="14.2344" y1="2.89189" x2="14.2344" y2="14.7919" gradientUnits="userSpaceOnUse">
<stop stop-color="#11EFE3"/>
<stop offset="1" stop-color="#21CFE0"/>
</linearGradient>
<linearGradient id="paint1_linear_517_19778" x1="24.7343" y1="7.896" x2="24.7343" y2="20.104" gradientUnits="userSpaceOnUse">
<stop stop-color="#0048E5"/>
<stop offset="1" stop-color="#9B66FF"/>
</linearGradient>
</defs>
</svg>
