<svg width="29" height="28" viewBox="0 0 29 28" fill="none" xmlns="http://www.w3.org/2000/svg">
<g clip-path="url(#clip0_517_19822)">
<path d="M18.9188 1.722C18.9188 0.77 18.1488 0 17.1898 0H2.44776C1.99041 -3.74817e-06 1.55169 0.181197 1.22764 0.503935C0.903587 0.826673 0.720608 1.26465 0.718757 1.722V22.778C0.717948 23.066 0.789397 23.3496 0.926562 23.6029C1.06373 23.8562 1.26223 24.071 1.50389 24.2277C1.74555 24.3844 2.02266 24.478 2.30985 24.4998C2.59704 24.5217 2.88513 24.4713 3.14776 24.353L10.2878 21.182L17.8898 17.801C18.5198 17.521 18.9188 16.912 18.9188 16.226V1.722Z" fill="url(#paint0_linear_517_19822)"/>
<path d="M19.2687 27.3C21.775 27.3 24.1787 26.3044 25.9509 24.5322C27.7231 22.76 28.7187 20.3563 28.7187 17.85C28.7187 15.3437 27.7231 12.9401 25.9509 11.1679C24.1787 9.39565 21.775 8.40002 19.2687 8.40002C16.7624 8.40002 14.3588 9.39565 12.5866 11.1679C10.8143 12.9401 9.81873 15.3437 9.81873 17.85C9.81873 20.3563 10.8143 22.76 12.5866 24.5322C14.3588 26.3044 16.7624 27.3 19.2687 27.3Z" fill="#00D924"/>
<path d="M18.9187 8.40002V16.226C18.9187 16.912 18.5197 17.528 17.8897 17.801L10.3997 21.133C9.87917 19.731 9.69883 18.2254 9.87353 16.74C10.0482 15.2547 10.573 13.8321 11.4046 12.589C12.2363 11.346 13.351 10.3181 14.6573 9.58989C15.9636 8.86165 17.4241 8.45385 18.9187 8.40002Z" fill="url(#paint1_linear_517_19822)"/>
</g>
<defs>
<linearGradient id="paint0_linear_517_19822" x1="9.81876" y1="4.445" x2="9.81876" y2="24.521" gradientUnits="userSpaceOnUse">
<stop stop-color="#FFD748"/>
<stop offset="1" stop-color="#FFC148"/>
</linearGradient>
<linearGradient id="paint1_linear_517_19822" x1="14.3687" y1="8.40702" x2="14.3687" y2="21.133" gradientUnits="userSpaceOnUse">
<stop stop-color="#00A600"/>
<stop offset="1" stop-color="#00D924"/>
</linearGradient>
<clipPath id="clip0_517_19822">
<rect width="28" height="28" fill="white" transform="translate(0.71875)"/>
</clipPath>
</defs>
</svg>
