<svg width="27" height="25" viewBox="0 0 27 25" fill="none" xmlns="http://www.w3.org/2000/svg">
<path d="M21.7705 2.59351C21.6103 2.54012 21.6103 2.31394 21.7705 2.26055L22.7108 1.94749C22.9174 1.87859 23.1052 1.76249 23.2593 1.6084C23.4133 1.45431 23.5293 1.26647 23.5981 1.05977L23.9112 0.120104C23.9646 -0.0400653 24.1908 -0.0400653 24.2442 0.120104L24.5573 1.06025C24.6262 1.26692 24.7423 1.4547 24.8964 1.6087C25.0505 1.7627 25.2384 1.8787 25.4451 1.94749L26.3849 2.26055C26.4199 2.27206 26.4505 2.29436 26.4721 2.32425C26.4938 2.35415 26.5055 2.39012 26.5055 2.42703C26.5055 2.46395 26.4938 2.49992 26.4721 2.52981C26.4505 2.55971 26.4199 2.582 26.3849 2.59351L25.4446 2.90657C25.238 2.97543 25.0502 3.09145 24.8962 3.24545C24.7422 3.39945 24.6261 3.5872 24.5573 3.79381L24.2442 4.73396C24.2327 4.76903 24.2104 4.79957 24.1805 4.82123C24.1506 4.84288 24.1146 4.85454 24.0777 4.85454C24.0408 4.85454 24.0048 4.84288 23.9749 4.82123C23.945 4.79957 23.9227 4.76903 23.9112 4.73396L23.5981 3.79381C23.5292 3.5872 23.4132 3.39945 23.2592 3.24545C23.1052 3.09145 22.9174 2.97543 22.7108 2.90657L21.7705 2.59351ZM19.2954 4.46847C19.2743 4.46151 19.256 4.4481 19.2431 4.43015C19.2301 4.4122 19.2231 4.39062 19.2231 4.36848C19.2231 4.34634 19.2301 4.32476 19.2431 4.30681C19.256 4.28886 19.2743 4.27546 19.2954 4.2685L19.8594 4.08066C20.1109 3.99669 20.3079 3.79964 20.3919 3.54822L20.5798 2.98423C20.5867 2.96321 20.6001 2.94492 20.6181 2.93195C20.636 2.91899 20.6576 2.91201 20.6798 2.91201C20.7019 2.91201 20.7235 2.91899 20.7414 2.93195C20.7594 2.94492 20.7728 2.96321 20.7798 2.98423L20.9676 3.54822C21.0089 3.67222 21.0786 3.78489 21.171 3.87731C21.2634 3.96973 21.3761 4.03935 21.5001 4.08066L22.0642 4.2685C22.0852 4.27546 22.1035 4.28886 22.1165 4.30681C22.1294 4.32476 22.1364 4.34634 22.1364 4.36848C22.1364 4.39062 22.1294 4.4122 22.1165 4.43015C22.1035 4.4481 22.0852 4.46151 22.0642 4.46847L21.5001 4.6563C21.3761 4.69761 21.2634 4.76724 21.171 4.85966C21.0786 4.95207 21.0089 5.06475 20.9676 5.18874L20.7798 5.75274C20.7728 5.77375 20.7594 5.79205 20.7414 5.80501C20.7235 5.81797 20.7019 5.82495 20.6798 5.82495C20.6576 5.82495 20.636 5.81797 20.6181 5.80501C20.6001 5.79205 20.5867 5.77375 20.5798 5.75274L20.3919 5.18874C20.3506 5.06475 20.281 4.95207 20.1885 4.85966C20.0961 4.76724 19.9834 4.69761 19.8594 4.6563L19.2954 4.46847ZM18.7862 1.03744C18.7723 1.03265 18.7604 1.02367 18.7519 1.01175C18.7434 0.999836 18.7388 0.985572 18.7388 0.970945C18.7388 0.956318 18.7434 0.942054 18.7519 0.930137C18.7604 0.91822 18.7723 0.909242 18.7862 0.90445L19.1619 0.779227C19.3298 0.72341 19.4614 0.591878 19.5172 0.423942L19.6424 0.0482715C19.6472 0.0344514 19.6562 0.022467 19.6681 0.0139856C19.68 0.00550426 19.6943 0.000946956 19.7089 0.000946955C19.7236 0.000946955 19.7378 0.00550425 19.7497 0.0139856C19.7617 0.022467 19.7706 0.0344514 19.7754 0.0482715L19.9007 0.423942C19.9282 0.506702 19.9747 0.581903 20.0363 0.643576C20.098 0.70525 20.1732 0.751696 20.256 0.779227L20.6317 0.90445C20.6455 0.909242 20.6575 0.91822 20.666 0.930137C20.6745 0.942054 20.679 0.956318 20.679 0.970945C20.679 0.985572 20.6745 0.999836 20.666 1.01175C20.6575 1.02367 20.6455 1.03265 20.6317 1.03744L20.256 1.16266C20.1732 1.19019 20.098 1.23664 20.0363 1.29831C19.9747 1.35999 19.9282 1.43519 19.9007 1.51795L19.7754 1.89313C19.7706 1.90695 19.7617 1.91894 19.7497 1.92742C19.7378 1.9359 19.7236 1.94046 19.7089 1.94046C19.6943 1.94046 19.68 1.9359 19.6681 1.92742C19.6562 1.91894 19.6472 1.90695 19.6424 1.89313L19.5172 1.51746C19.4614 1.34953 19.3298 1.21799 19.1619 1.16218L18.7862 1.03744Z" fill="#282828"/>
<path d="M23.436 22.4755L18.2421 17.1055C19.4926 15.3843 20.1676 13.2894 20.1653 11.1368C20.1653 5.63836 15.8386 1.16498 10.5205 1.16498C5.20232 1.16498 0.87561 5.63836 0.87561 11.1368C0.87561 16.6352 5.20232 21.1086 10.5205 21.1086C12.6025 21.1109 14.6288 20.413 16.2935 19.1201L21.4874 24.4901C21.7503 24.7331 22.0932 24.8628 22.4457 24.8526C22.7982 24.8424 23.1336 24.6931 23.383 24.4353C23.6323 24.1775 23.7768 23.8308 23.7866 23.4663C23.7965 23.1018 23.671 22.7473 23.436 22.4755ZM3.63128 11.1368C3.63128 9.72803 4.03533 8.35093 4.79232 7.17961C5.54931 6.00828 6.62525 5.09535 7.88409 4.55625C9.14292 4.01715 10.5281 3.87609 11.8645 4.15092C13.2008 4.42575 14.4284 5.10413 15.3918 6.10026C16.3553 7.09639 17.0114 8.36553 17.2773 9.7472C17.5431 11.1289 17.4067 12.561 16.8852 13.8625C16.3638 15.164 15.4808 16.2764 14.3479 17.0591C13.215 17.8417 11.883 18.2595 10.5205 18.2595C8.69401 18.2572 6.94299 17.5061 5.6515 16.1708C4.36 14.8355 3.63347 13.0251 3.63128 11.1368Z" fill="#282828"/>
</svg>
