<svg width="34" height="33" viewBox="0 0 34 33" fill="none" xmlns="http://www.w3.org/2000/svg">
<rect x="0.971863" y="0.597595" width="32.2658" height="31.8049" rx="4.6094" fill="white"/>
<path d="M16.1102 16.5008L12.2568 16.5008M24.6241 16.0635C24.7061 16.1034 24.7752 16.1656 24.8235 16.2429C24.8718 16.3202 24.8974 16.4096 24.8973 16.5007C24.8973 16.5919 24.8715 16.6812 24.8231 16.7585C24.7747 16.8357 24.7055 16.8978 24.6235 16.9376L9.94609 24.0059C9.85833 24.0481 9.7599 24.063 9.66358 24.0486C9.56725 24.0342 9.47748 23.9912 9.4059 23.9251C9.33432 23.8591 9.28424 23.7731 9.26215 23.6782C9.24006 23.5834 9.24699 23.4841 9.28203 23.3932L11.8657 16.6749C11.9088 16.5629 11.9088 16.4388 11.8657 16.3268L9.28267 9.60785C9.24794 9.51708 9.24122 9.41799 9.26338 9.32336C9.28555 9.22874 9.33558 9.14294 9.407 9.07704C9.47843 9.01114 9.56798 8.96818 9.66408 8.9537C9.76018 8.93922 9.85841 8.95388 9.94609 8.9958L24.6241 16.0635Z" stroke="#282828" stroke-width="1.55333" stroke-linecap="round" stroke-linejoin="round"/>
</svg>
