<svg width="20" height="20" viewBox="0 0 20 20" fill="none" xmlns="http://www.w3.org/2000/svg">
<g clip-path="url(#clip0_635_452)">
<mask id="mask0_635_452" style="mask-type:alpha" maskUnits="userSpaceOnUse" x="0" y="0" width="24" height="24">
<rect width="24" height="24" fill="#D9D9D9"/>
</mask>
<g mask="url(#mask0_635_452)">
<path d="M10 17.5C8.95833 17.5 7.98264 17.3021 7.07292 16.9062C6.16319 16.5104 5.37153 15.9757 4.69792 15.3021C4.02431 14.6285 3.48958 13.8368 3.09375 12.9271C2.69792 12.0174 2.5 11.0417 2.5 10C2.5 8.95833 2.69792 7.98264 3.09375 7.07292C3.48958 6.16319 4.02431 5.37153 4.69792 4.69792C5.37153 4.02431 6.16319 3.48958 7.07292 3.09375C7.98264 2.69792 8.95833 2.5 10 2.5V4.16667C8.375 4.16667 6.99653 4.73264 5.86458 5.86458C4.73264 6.99653 4.16667 8.375 4.16667 10C4.16667 11.625 4.73264 13.0035 5.86458 14.1354C6.99653 15.2674 8.375 15.8333 10 15.8333V17.5ZM13.3333 14.1667L12.1667 12.9792L14.3125 10.8333H7.5V9.16667H14.3125L12.1667 7L13.3333 5.83333L17.5 10L13.3333 14.1667Z" fill="#3F3F41"/>
</g>
</g>
<defs>
<clipPath id="clip0_635_452">
<rect width="20" height="20" fill="white"/>
</clipPath>
</defs>
</svg>
