<svg width="24" height="24" viewBox="0 0 24 24" fill="none" xmlns="http://www.w3.org/2000/svg">
<g clip-path="url(#clip0_635_540)">
<path d="M14.2714 6.86596L6.67822 14.6825L9.76453 17.8595L17.3577 10.043C17.4436 9.95459 17.4824 9.82893 17.4595 9.70607C17.2586 8.62853 15.6455 6.9679 14.5987 6.76112C14.4794 6.73754 14.3573 6.7775 14.2714 6.86596Z" fill="#8526FE"/>
<path d="M17.3594 10.0428L9.76453 17.8611L6.67822 14.684L7.26976 14.075C10.9707 14.6496 15.4047 10.3181 16.9582 8.65015C17.2154 9.0155 17.4005 9.38618 17.4597 9.70653C17.4803 9.82833 17.4442 9.95538 17.3594 10.0428Z" fill="#5FE4D4"/>
<path d="M17.3594 10.0437L9.76453 17.862L6.67822 14.6849L7.26976 14.076C9.07011 14.3566 11.0428 13.475 12.7762 12.3047C14.6023 11.0657 16.1609 9.5089 16.9582 8.65108C17.2154 9.01643 17.4005 9.3871 17.4597 9.70746C17.4803 9.82926 17.4442 9.95631 17.3594 10.0437ZM17.9149 7.6185L16.9402 8.62193C16.5955 8.13479 16.1274 7.65291 15.6542 7.29815L16.629 6.29472C16.7704 6.14911 16.9993 6.14644 17.1433 6.29472L17.9149 7.08899C18.0564 7.2346 18.0564 7.4729 17.9149 7.6185Z" fill="#5FE4D4"/>
<path d="M11.9867 9.21759L6.67822 14.6825L9.76437 17.8598L13.2727 14.2482L11.9867 9.21759Z" fill="#D8A353"/>
<path d="M13.2726 14.2498L9.76453 17.861L6.67822 14.6839L7.26976 14.075C9.07011 14.3556 11.0428 13.474 12.7762 12.3038L13.2726 14.2498Z" fill="#AD59D4"/>
<path d="M5.77752 14.2864L5.26314 14.8159C5.12111 14.9621 5.12111 15.1992 5.26314 15.3454L9.12103 19.3167C9.26306 19.4629 9.49338 19.4629 9.63541 19.3167L10.1498 18.7872C10.2918 18.641 10.2918 18.4039 10.1498 18.2577L6.2919 14.2864C6.14987 14.1401 5.91955 14.1401 5.77752 14.2864Z" fill="#5FE4D4"/>
<path d="M6.29235 16.4034L3.53137 19.2457L5.33182 21.0991L8.0928 18.2568L6.29235 16.4034Z" fill="#5FE4D4"/>
<path d="M5.97499 22.8195C5.83355 22.9651 5.64836 23.0392 5.45806 23.0392C5.2729 23.0392 5.08771 22.9651 4.94623 22.8195L1.85992 19.6424C1.57444 19.3485 1.57444 18.8773 1.85992 18.5834C2.0014 18.4378 2.18659 18.3636 2.37175 18.3636C2.5569 18.3636 2.74465 18.4351 2.88868 18.5834L5.97499 21.7605C6.25792 22.0517 6.25792 22.5282 5.97499 22.8195Z" fill="#5FE4D4"/>
<path d="M22.5813 1.48978C22.4549 1.35969 22.2502 1.35969 22.1237 1.48978L17.5289 6.21975L17.3727 6.05889C17.1124 5.79122 16.6611 5.79139 16.401 6.05906L15.6155 6.86769C15.2841 6.64858 14.9548 6.49305 14.66 6.43486C14.4338 6.3895 14.2044 6.46477 14.043 6.63116C13.106 7.59566 7.59071 13.2733 6.67865 14.2122L6.52154 14.0505C6.26214 13.7832 5.8091 13.7833 5.54969 14.0507L5.03547 14.58C4.90545 14.7137 4.83391 14.8913 4.83391 15.0804C4.83391 15.2693 4.90548 15.4471 5.03534 15.5806L5.83533 16.4041L3.53255 18.7746L3.11833 18.3482C2.72292 17.9409 2.03131 17.9367 1.6321 18.3482C1.22232 18.7701 1.22232 19.4563 1.6321 19.8782L4.71845 23.0553C5.1347 23.4838 5.79797 23.4733 6.20464 23.0553C6.61443 22.6335 6.61443 21.9472 6.20464 21.5254L5.79036 21.0989L8.09315 18.7284L8.89321 19.552C9.02291 19.6857 9.19558 19.7592 9.37915 19.7592C9.56272 19.7592 9.73538 19.6857 9.86509 19.552L10.3794 19.0225C10.5093 18.889 10.5807 18.7112 10.5807 18.5223C10.5807 18.3333 10.5093 18.1555 10.3794 18.022L10.2223 17.8603L13.5019 14.4842L17.5868 10.2792C17.7491 10.1122 17.8205 9.87492 17.7776 9.64402C17.7212 9.34121 17.5708 9.00314 17.3587 8.6628L18.1446 7.85373C18.4124 7.57794 18.4122 7.1291 18.1445 6.85347L17.9864 6.69074L22.5813 1.9607C22.7076 1.83062 22.7076 1.61986 22.5813 1.48978ZM5.74727 22.5841C5.59576 22.7394 5.33118 22.7438 5.17588 22.5843L2.08954 19.4072C1.92936 19.2423 1.92936 18.9841 2.0897 18.819C2.25386 18.65 2.50826 18.6621 2.66077 18.8192C7.33156 23.6301 2.66442 18.8233 5.74711 21.9963C5.90463 22.1584 5.90463 22.4222 5.74727 22.5841ZM7.63555 18.2575L5.33286 20.6279L3.99002 19.2456L6.29281 16.8751L7.63555 18.2575ZM9.9219 18.5515L9.40755 19.081C9.39966 19.0889 9.39018 19.093 9.37912 19.093L5.49278 15.1097V15.0511L6.00713 14.5216L6.06401 14.5215C6.96568 15.4497 5.25159 13.6853 9.92187 18.493C9.93533 18.5068 9.93533 18.5377 9.9219 18.5515ZM9.76486 17.3892C9.55414 17.1723 7.39416 14.9489 7.13609 14.6832L8.29736 13.4878L8.71151 13.9142C8.83788 14.0443 9.04261 14.0443 9.16901 13.9142C9.29539 13.7843 9.29539 13.5734 9.16901 13.4433L8.75486 13.0168L9.8405 11.8992L10.2548 12.3256C10.3812 12.4557 10.5859 12.4557 10.7123 12.3256C10.8387 12.1955 10.8387 11.9846 10.7123 11.8546L10.298 11.4283L11.8177 9.86383L12.913 14.1485L9.76486 17.3892ZM17.1293 9.80824L13.4427 13.6032L12.3474 9.31847L13.2904 8.34771L13.7047 8.77417C13.8311 8.90426 14.0358 8.90426 14.1622 8.77417C14.2886 8.64408 14.2886 8.43333 14.1622 8.30321L13.7479 7.87675L14.5004 7.10212C14.509 7.09316 14.5199 7.0878 14.538 7.08893C15.4451 7.26811 16.9668 8.82929 17.142 9.76908C17.1446 9.7829 17.14 9.79719 17.1293 9.80824ZM17.6869 7.38294L16.9706 8.12027C16.744 7.84038 16.4442 7.52698 16.1421 7.26751L16.8585 6.53001H16.9154C16.9681 6.5843 17.7282 7.36689 17.6869 7.32443C17.7021 7.34001 17.7019 7.36732 17.6869 7.38294Z" fill="black"/>
</g>
<defs>
<clipPath id="clip0_635_540">
<rect width="22" height="22.6471" fill="white" transform="translate(1 1.05859)"/>
</clipPath>
</defs>
</svg>
